<?xml version="1.0" encoding="UTF-8"?>
<svg width="400px" height="100px" viewBox="0 0 400 100" version="1.1" xmlns="http://www.w3.org/2000/svg" xmlns:xlink="http://www.w3.org/1999/xlink">
    <!-- Generator: Sketch 51.3 (57544) - http://www.bohemiancoding.com/sketch -->
    <title>Artboard</title>
    <desc>Created with Sketch.</desc>
    <defs></defs>
    <g id="Artboard" stroke="none" stroke-width="1" fill="none" fill-rule="evenodd">
        <rect fill="#150F30" x="0" y="0" width="400" height="100"></rect>
        <text id="API-Development-DevO" font-family="SFProDisplay-Bold, SF Pro Display" font-size="15" font-weight="bold" fill="#FFFFFF">
            <tspan x="13" y="39">API Development</tspan>
            <tspan x="13" y="57">DevOps</tspan>
            <tspan x="13" y="75">Automation / Scripting</tspan>
        </text>
        <g id="python-brands" transform="translate(207.000000, 25.000000)" fill="#FF374F" fill-rule="nonzero">
            <path d="M48.9777778,18.8333333 C48.1222222,15.4 46.5,12.8111111 43.0444444,12.8111111 L38.5888889,12.8111111 L38.5888889,18.0777778 C38.5888889,22.1666667 35.1222222,25.6111111 31.1666667,25.6111111 L19.3,25.6111111 C16.0555556,25.6111111 13.3666667,28.3888889 13.3666667,31.6444444 L13.3666667,42.9555556 C13.3666667,46.1777778 16.1666667,48.0666667 19.3,48.9888889 C23.0555556,50.0888889 26.6666667,50.2888889 31.1666667,48.9888889 C34.1555556,48.1222222 37.1,46.3777778 37.1,42.9555556 L37.1,38.4333333 L25.2444444,38.4333333 L25.2444444,36.9222222 L43.0444444,36.9222222 C46.5,36.9222222 47.7777778,34.5111111 48.9777778,30.9 C50.2222222,27.1777778 50.1666667,23.6 48.9777778,18.8333333 Z M31.9111111,41.4444444 C33.1444444,41.4444444 34.1444444,42.4555556 34.1444444,43.7 C34.1444444,44.9555556 33.1444444,45.9666667 31.9111111,45.9666667 C30.6888889,45.9666667 29.6777778,44.9444444 29.6777778,43.7 C29.6888889,42.4444444 30.6888889,41.4444444 31.9111111,41.4444444 Z M18.7555556,24.1222222 L30.6222222,24.1222222 C33.9222222,24.1222222 36.5555556,21.4 36.5555556,18.0888889 L36.5555556,6.76666667 C36.5555556,3.54444444 33.8444444,1.13333333 30.6222222,0.588888889 C26.6444444,-0.0666666667 22.3222222,-0.0333333333 18.7555556,0.6 C13.7333333,1.48888889 12.8222222,3.34444444 12.8222222,6.77777778 L12.8222222,11.3 L24.7,11.3 L24.7,12.8111111 L8.36666667,12.8111111 C4.91111111,12.8111111 1.88888889,14.8888889 0.944444444,18.8333333 C-0.144444444,23.3555556 -0.188888889,26.1777778 0.944444444,30.9 C1.78888889,34.4111111 3.8,36.9222222 7.25555556,36.9222222 L11.3333333,36.9222222 L11.3333333,31.5 C11.3333333,27.5777778 14.7222222,24.1222222 18.7555556,24.1222222 Z M18.0111111,8.27777778 C16.7777778,8.27777778 15.7777778,7.26666667 15.7777778,6.02222222 C15.7888889,4.76666667 16.7777778,3.75555556 18.0111111,3.75555556 C19.2333333,3.75555556 20.2444444,4.77777778 20.2444444,6.02222222 C20.2444444,7.26666667 19.2444444,8.27777778 18.0111111,8.27777778 Z" id="Shape"></path>
        </g>
        <g id="iconmonstr-cloud-1" transform="translate(273.000000, 31.000000)" fill="#FF374F" fill-rule="nonzero">
            <path d="M25,9.86864911e-16 C16.6541667,9.86864911e-16 9.86041667,6.631 9.41875,14.972 C4.06458333,15.9494444 0,20.6846667 0,26.3888889 C0,32.8003333 5.13125,38 11.4583333,38 L38.5416667,38 C44.86875,38 50,32.8003333 50,26.3888889 C50,20.6846667 45.9354167,15.9494444 40.58125,14.972 C40.1395833,6.631 33.3458333,-8.8817842e-16 25,9.86864911e-16 Z" id="Shape"></path>
        </g>
        <g id="iconmonstr-gear-11" transform="translate(330.000000, 29.000000)" fill="#FF374F" fill-rule="nonzero">
            <path d="M35.4166667,20.1668182 L35.4166667,15.3786364 C32.9791667,14.5067273 31.44375,14.2641818 30.6666667,12.3865455 C29.8895833,10.5047273 30.8125,9.22509091 31.9166667,6.89790909 L28.5458333,3.51272727 C26.24375,4.61045455 24.95625,5.54927273 23.075,4.76727273 C21.2,3.98736364 20.95625,2.43381818 20.09375,8.8817842e-16 L15.3229167,8.8817842e-16 C14.4645833,2.42127273 14.21875,3.98736364 12.3416667,4.76727273 L12.3395833,4.76727273 C10.4645833,5.54927273 9.19375,4.62090909 6.87083333,3.51272727 L3.50208333,6.89790909 C4.6,9.21881818 5.52916667,10.5026364 4.75208333,12.3865455 C3.97083333,14.2704545 2.4125,14.5171818 -8.8817842e-16,15.3786364 L-8.8817842e-16,20.1647273 C2.40625,21.0261818 3.97291667,21.275 4.75,23.1568182 C5.53333333,25.0553636 4.58125,26.3642727 3.5,28.6454545 L6.87083333,32.0306364 C9.17708333,30.9329091 10.4625,29.9940909 12.3395833,30.7760909 L12.3416667,30.7760909 C14.2166667,31.556 14.4625,33.1137273 15.3229167,35.5433636 L20.0916667,35.5433636 C20.95,33.1220909 21.1958333,31.5601818 23.0854167,30.7719091 L23.0875,30.7719091 C24.95,29.9940909 26.2145833,30.9203636 28.54375,32.0306364 L31.9145833,28.6454545 C30.8208333,26.3308182 29.8854167,25.0428182 30.6625,23.1568182 C31.4416667,21.2770909 33.0083333,21.0261818 35.4166667,20.1668182 Z M17.7083333,23.6983636 C14.45,23.6983636 11.80625,21.045 11.80625,17.7727273 C11.80625,14.5004545 14.45,11.8470909 17.7083333,11.8470909 C20.9666667,11.8470909 23.6104167,14.5004545 23.6104167,17.7727273 C23.6104167,21.045 20.9666667,23.6983636 17.7083333,23.6983636 Z M50,32.4906364 L50,30.2387273 C48.8541667,29.8289091 48.13125,29.7139091 47.7645833,28.8315455 C47.3979167,27.945 47.8333333,27.3449091 48.3520833,26.2471818 L46.7645833,24.6539091 C45.68125,25.1724545 45.075,25.6115455 44.1916667,25.2456364 C43.3083333,24.8797273 43.19375,24.1479091 42.7875,23.0020909 L40.5458333,23.0020909 C40.1416667,24.1416364 40.025,24.8776364 39.1416667,25.2456364 C38.2583333,25.6136364 37.6604167,25.1766364 36.56875,24.6539091 L34.98125,26.2471818 C35.4979167,27.3407273 35.9354167,27.945 35.56875,28.8315455 C35.2020833,29.7180909 34.46875,29.8330909 33.3333333,30.2387273 L33.3333333,32.4906364 C34.4666667,32.8941818 35.2020833,33.0133636 35.56875,33.8978182 C35.9375,34.7906364 35.4895833,35.4074545 34.98125,36.4821818 L36.56875,38.0754545 C37.6541667,37.5569091 38.2604167,37.1178182 39.1416667,37.4837273 C40.025,37.8496364 40.1395833,38.5835455 40.5458333,39.7272727 L42.7875,39.7272727 C43.1916667,38.5877273 43.3083333,37.8517273 44.1958333,37.4816364 L44.1979167,37.4816364 C45.075,37.1157273 45.66875,37.5527273 46.7645833,38.0754545 L48.3520833,36.4821818 C47.8375,35.3928182 47.3979167,34.7843636 47.7645833,33.8999091 C48.13125,33.0154545 48.8666667,32.8941818 50,32.4906364 Z M41.6666667,34.1508182 C40.1333333,34.1508182 38.8895833,32.9025455 38.8895833,31.3636364 C38.8895833,29.8247273 40.1333333,28.5764545 41.6666667,28.5764545 C43.2,28.5764545 44.44375,29.8247273 44.44375,31.3636364 C44.44375,32.9025455 43.2,34.1508182 41.6666667,34.1508182 Z M33.3333333,40.572 L33.3333333,38.8825455 C32.475,38.5751818 31.93125,38.4894545 31.65625,37.8266364 C31.38125,37.1638182 31.70625,36.7121818 32.0979167,35.8883636 L30.90625,34.6944545 C30.0958333,35.0833636 29.6416667,35.4137273 28.9770833,35.1377273 C28.3125,34.8617273 28.2291667,34.3139091 27.9229167,33.4545455 L26.2416667,33.4545455 C25.9375,34.3097273 25.85,34.8617273 25.1875,35.1377273 C24.5270833,35.4137273 24.0770833,35.0875455 23.2583333,34.6944545 L22.0666667,35.8883636 C22.45625,36.7100909 22.7833333,37.1617273 22.5083333,37.8266364 C22.2333333,38.4915455 21.6833333,38.5772727 20.83125,38.8825455 L20.83125,40.572 C21.68125,40.8751818 22.2333333,40.9650909 22.5083333,41.6279091 C22.7854167,42.297 22.45,42.7611818 22.0666667,43.5661818 L23.2583333,44.7600909 C24.0708333,44.3711818 24.525,44.0408182 25.1875,44.3168182 C25.85,44.5928182 25.9354167,45.1427273 26.2416667,46 L27.9229167,46 C28.2270833,45.1448182 28.3145833,44.5928182 28.9791667,44.3168182 L28.98125,44.3168182 C29.6375,44.0429091 30.0833333,44.3690909 30.90625,44.7621818 L32.0979167,43.5682727 C31.7104167,42.7507273 31.38125,42.2949091 31.65625,41.63 C31.93125,40.9650909 32.4833333,40.8751818 33.3333333,40.572 Z M27.0833333,41.8181818 C25.9333333,41.8181818 25,40.8835455 25,39.7272727 C25,38.571 25.9333333,37.6363636 27.0833333,37.6363636 C28.2333333,37.6363636 29.1666667,38.571 29.1666667,39.7272727 C29.1666667,40.8835455 28.2333333,41.8181818 27.0833333,41.8181818 Z" id="Shape"></path>
        </g>
    </g>
</svg>