<?xml version="1.0" encoding="UTF-8"?>
<svg width="400px" height="100px" viewBox="0 0 400 100" version="1.1" xmlns="http://www.w3.org/2000/svg" xmlns:xlink="http://www.w3.org/1999/xlink">
    <!-- Generator: Sketch 51.3 (57544) - http://www.bohemiancoding.com/sketch -->
    <title>Artboard</title>
    <desc>Created with Sketch.</desc>
    <defs></defs>
    <g id="Artboard" stroke="none" stroke-width="1" fill="none" fill-rule="evenodd">
        <rect fill="#150F30" x="0" y="0" width="400" height="100"></rect>
        <path d="M255.977778,43.8333333 C255.122222,40.4 253.5,37.8111111 250.044444,37.8111111 L245.588889,37.8111111 L245.588889,43.0777778 C245.588889,47.1666667 242.122222,50.6111111 238.166667,50.6111111 L226.3,50.6111111 C223.055556,50.6111111 220.366667,53.3888889 220.366667,56.6444444 L220.366667,67.9555556 C220.366667,71.1777778 223.166667,73.0666667 226.3,73.9888889 C230.055556,75.0888889 233.666667,75.2888889 238.166667,73.9888889 C241.155556,73.1222222 244.1,71.3777778 244.1,67.9555556 L244.1,63.4333333 L232.244444,63.4333333 L232.244444,61.9222222 L250.044444,61.9222222 C253.5,61.9222222 254.777778,59.5111111 255.977778,55.9 C257.222222,52.1777778 257.166667,48.6 255.977778,43.8333333 Z M238.911111,66.4444444 C240.144444,66.4444444 241.144444,67.4555556 241.144444,68.7 C241.144444,69.9555556 240.144444,70.9666667 238.911111,70.9666667 C237.688889,70.9666667 236.677778,69.9444444 236.677778,68.7 C236.688889,67.4444444 237.688889,66.4444444 238.911111,66.4444444 Z M225.755556,49.1222222 L237.622222,49.1222222 C240.922222,49.1222222 243.555556,46.4 243.555556,43.0888889 L243.555556,31.7666667 C243.555556,28.5444444 240.844444,26.1333333 237.622222,25.5888889 C233.644444,24.9333333 229.322222,24.9666667 225.755556,25.6 C220.733333,26.4888889 219.822222,28.3444444 219.822222,31.7777778 L219.822222,36.3 L231.7,36.3 L231.7,37.8111111 L215.366667,37.8111111 C211.911111,37.8111111 208.888889,39.8888889 207.944444,43.8333333 C206.855556,48.3555556 206.811111,51.1777778 207.944444,55.9 C208.788889,59.4111111 210.8,61.9222222 214.255556,61.9222222 L218.333333,61.9222222 L218.333333,56.5 C218.333333,52.5777778 221.722222,49.1222222 225.755556,49.1222222 Z M225.011111,33.2777778 C223.777778,33.2777778 222.777778,32.2666667 222.777778,31.0222222 C222.788889,29.7666667 223.777778,28.7555556 225.011111,28.7555556 C226.233333,28.7555556 227.244444,29.7777778 227.244444,31.0222222 C227.244444,32.2666667 226.244444,33.2777778 225.011111,33.2777778 Z" id="Shape" fill="#FF374F" fill-rule="nonzero"></path>
        <path d="M298,31 C289.654167,31 282.860417,37.631 282.41875,45.972 C277.064583,46.9494444 273,51.6846667 273,57.3888889 C273,63.8003333 278.13125,69 284.458333,69 L311.541667,69 C317.86875,69 323,63.8003333 323,57.3888889 C323,51.6846667 318.935417,46.9494444 313.58125,45.972 C313.139583,37.631 306.345833,31 298,31 Z" id="Shape" fill="#FF374F" fill-rule="nonzero"></path>
        <path d="M365.416667,49.1668182 L365.416667,44.3786364 C362.979167,43.5067273 361.44375,43.2641818 360.666667,41.3865455 C359.889583,39.5047273 360.8125,38.2250909 361.916667,35.8979091 L358.545833,32.5127273 C356.24375,33.6104545 354.95625,34.5492727 353.075,33.7672727 C351.2,32.9873636 350.95625,31.4338182 350.09375,29 L345.322917,29 C344.464583,31.4212727 344.21875,32.9873636 342.341667,33.7672727 L342.339583,33.7672727 C340.464583,34.5492727 339.19375,33.6209091 336.870833,32.5127273 L333.502083,35.8979091 C334.6,38.2188182 335.529167,39.5026364 334.752083,41.3865455 C333.970833,43.2704545 332.4125,43.5171818 330,44.3786364 L330,49.1647273 C332.40625,50.0261818 333.972917,50.275 334.75,52.1568182 C335.533333,54.0553636 334.58125,55.3642727 333.5,57.6454545 L336.870833,61.0306364 C339.177083,59.9329091 340.4625,58.9940909 342.339583,59.7760909 L342.341667,59.7760909 C344.216667,60.556 344.4625,62.1137273 345.322917,64.5433636 L350.091667,64.5433636 C350.95,62.1220909 351.195833,60.5601818 353.085417,59.7719091 L353.0875,59.7719091 C354.95,58.9940909 356.214583,59.9203636 358.54375,61.0306364 L361.914583,57.6454545 C360.820833,55.3308182 359.885417,54.0428182 360.6625,52.1568182 C361.441667,50.2770909 363.008333,50.0261818 365.416667,49.1668182 Z M347.708333,52.6983636 C344.45,52.6983636 341.80625,50.045 341.80625,46.7727273 C341.80625,43.5004545 344.45,40.8470909 347.708333,40.8470909 C350.966667,40.8470909 353.610417,43.5004545 353.610417,46.7727273 C353.610417,50.045 350.966667,52.6983636 347.708333,52.6983636 Z M380,61.4906364 L380,59.2387273 C378.854167,58.8289091 378.13125,58.7139091 377.764583,57.8315455 C377.397917,56.945 377.833333,56.3449091 378.352083,55.2471818 L376.764583,53.6539091 C375.68125,54.1724545 375.075,54.6115455 374.191667,54.2456364 C373.308333,53.8797273 373.19375,53.1479091 372.7875,52.0020909 L370.545833,52.0020909 C370.141667,53.1416364 370.025,53.8776364 369.141667,54.2456364 C368.258333,54.6136364 367.660417,54.1766364 366.56875,53.6539091 L364.98125,55.2471818 C365.497917,56.3407273 365.935417,56.945 365.56875,57.8315455 C365.202083,58.7180909 364.46875,58.8330909 363.333333,59.2387273 L363.333333,61.4906364 C364.466667,61.8941818 365.202083,62.0133636 365.56875,62.8978182 C365.9375,63.7906364 365.489583,64.4074545 364.98125,65.4821818 L366.56875,67.0754545 C367.654167,66.5569091 368.260417,66.1178182 369.141667,66.4837273 C370.025,66.8496364 370.139583,67.5835455 370.545833,68.7272727 L372.7875,68.7272727 C373.191667,67.5877273 373.308333,66.8517273 374.195833,66.4816364 L374.197917,66.4816364 C375.075,66.1157273 375.66875,66.5527273 376.764583,67.0754545 L378.352083,65.4821818 C377.8375,64.3928182 377.397917,63.7843636 377.764583,62.8999091 C378.13125,62.0154545 378.866667,61.8941818 380,61.4906364 Z M371.666667,63.1508182 C370.133333,63.1508182 368.889583,61.9025455 368.889583,60.3636364 C368.889583,58.8247273 370.133333,57.5764545 371.666667,57.5764545 C373.2,57.5764545 374.44375,58.8247273 374.44375,60.3636364 C374.44375,61.9025455 373.2,63.1508182 371.666667,63.1508182 Z M363.333333,69.572 L363.333333,67.8825455 C362.475,67.5751818 361.93125,67.4894545 361.65625,66.8266364 C361.38125,66.1638182 361.70625,65.7121818 362.097917,64.8883636 L360.90625,63.6944545 C360.095833,64.0833636 359.641667,64.4137273 358.977083,64.1377273 C358.3125,63.8617273 358.229167,63.3139091 357.922917,62.4545455 L356.241667,62.4545455 C355.9375,63.3097273 355.85,63.8617273 355.1875,64.1377273 C354.527083,64.4137273 354.077083,64.0875455 353.258333,63.6944545 L352.066667,64.8883636 C352.45625,65.7100909 352.783333,66.1617273 352.508333,66.8266364 C352.233333,67.4915455 351.683333,67.5772727 350.83125,67.8825455 L350.83125,69.572 C351.68125,69.8751818 352.233333,69.9650909 352.508333,70.6279091 C352.785417,71.297 352.45,71.7611818 352.066667,72.5661818 L353.258333,73.7600909 C354.070833,73.3711818 354.525,73.0408182 355.1875,73.3168182 C355.85,73.5928182 355.935417,74.1427273 356.241667,75 L357.922917,75 C358.227083,74.1448182 358.314583,73.5928182 358.979167,73.3168182 L358.98125,73.3168182 C359.6375,73.0429091 360.083333,73.3690909 360.90625,73.7621818 L362.097917,72.5682727 C361.710417,71.7507273 361.38125,71.2949091 361.65625,70.63 C361.93125,69.9650909 362.483333,69.8751818 363.333333,69.572 Z M357.083333,70.8181818 C355.933333,70.8181818 355,69.8835455 355,68.7272727 C355,67.571 355.933333,66.6363636 357.083333,66.6363636 C358.233333,66.6363636 359.166667,67.571 359.166667,68.7272727 C359.166667,69.8835455 358.233333,70.8181818 357.083333,70.8181818 Z" id="Shape" fill="#FF374F" fill-rule="nonzero"></path>
        <path d="M33.800293,37 L32.9946289,34.4365234 L29.28125,34.4365234 L28.4755859,37 L26.2050781,37 L29.8745117,26.4311523 L32.4746094,26.4311523 L36.1513672,37 L33.800293,37 Z M31.1123047,28.4526367 L29.7573242,32.78125 L32.5185547,32.78125 L31.1635742,28.4526367 L31.1123047,28.4526367 Z M37.2280273,26.4311523 L41.5273438,26.4311523 C43.6953125,26.4311523 45.1894531,27.8740234 45.1894531,30.0493164 C45.1894531,32.2172852 43.644043,33.6674805 41.4174805,33.6674805 L39.4399414,33.6674805 L39.4399414,37 L37.2280273,37 L37.2280273,26.4311523 Z M39.4399414,28.1816406 L39.4399414,31.9389648 L40.934082,31.9389648 C42.2011719,31.9389648 42.940918,31.2651367 42.940918,30.0566406 C42.940918,28.8554688 42.2084961,28.1816406 40.9414062,28.1816406 L39.4399414,28.1816406 Z M48.7050781,37 L46.4931641,37 L46.4931641,26.4311523 L48.7050781,26.4311523 L48.7050781,37 Z M53.4291992,26.4311523 L57.4648438,26.4311523 C60.6362305,26.4311523 62.5039062,28.3208008 62.5039062,31.675293 C62.5039062,35.0297852 60.6362305,37 57.4648438,37 L53.4291992,37 L53.4291992,26.4311523 Z M55.6411133,28.2548828 L55.6411133,35.1689453 L57.2011719,35.1689453 C59.1787109,35.1689453 60.2480469,33.9677734 60.2480469,31.6826172 C60.2480469,29.4707031 59.1494141,28.2548828 57.2011719,28.2548828 L55.6411133,28.2548828 Z M68.9492188,34.5976562 L70.9121094,34.5976562 C70.6777344,36.1357422 69.2714844,37.168457 67.3305664,37.168457 C64.9135742,37.168457 63.4633789,35.6230469 63.4633789,33.1108398 C63.4633789,30.605957 64.9282227,28.9799805 67.25,28.9799805 C69.5351562,28.9799805 70.9780273,30.5253906 70.9780273,32.9130859 L70.9780273,33.5649414 L65.5654297,33.5649414 L65.5654297,33.6967773 C65.5654297,34.8173828 66.2758789,35.5864258 67.3671875,35.5864258 C68.1508789,35.5864258 68.7514648,35.1982422 68.9492188,34.5976562 Z M67.2719727,30.5620117 C66.3344727,30.5620117 65.6606445,31.2724609 65.5874023,32.2539062 L68.9199219,32.2539062 C68.8759766,31.2504883 68.2241211,30.5620117 67.2719727,30.5620117 Z M79.1445312,29.1484375 L76.4492188,37 L74.0322266,37 L71.3149414,29.1484375 L73.6074219,29.1484375 L75.2407227,35.1103516 L75.284668,35.1103516 L76.9106445,29.1484375 L79.1445312,29.1484375 Z M84.8647461,34.5976562 L86.8276367,34.5976562 C86.5932617,36.1357422 85.1870117,37.168457 83.2460938,37.168457 C80.8291016,37.168457 79.3789062,35.6230469 79.3789062,33.1108398 C79.3789062,30.605957 80.84375,28.9799805 83.1655273,28.9799805 C85.4506836,28.9799805 86.8935547,30.5253906 86.8935547,32.9130859 L86.8935547,33.5649414 L81.480957,33.5649414 L81.480957,33.6967773 C81.480957,34.8173828 82.1914062,35.5864258 83.2827148,35.5864258 C84.0664062,35.5864258 84.6669922,35.1982422 84.8647461,34.5976562 Z M83.1875,30.5620117 C82.25,30.5620117 81.5761719,31.2724609 81.5029297,32.2539062 L84.8354492,32.2539062 C84.7915039,31.2504883 84.1396484,30.5620117 83.1875,30.5620117 Z M88.043457,37 L88.043457,26.4311523 L90.1821289,26.4311523 L90.1821289,37 L88.043457,37 Z M95.2285156,37.168457 C92.8554688,37.168457 91.3393555,35.6450195 91.3393555,33.0668945 C91.3393555,30.5253906 92.8774414,28.9799805 95.2285156,28.9799805 C97.5795898,28.9799805 99.1176758,30.5180664 99.1176758,33.0668945 C99.1176758,35.6523438 97.6015625,37.168457 95.2285156,37.168457 Z M95.2285156,35.5351562 C96.2758789,35.5351562 96.9423828,34.6489258 96.9423828,33.0742188 C96.9423828,31.5141602 96.2685547,30.6132812 95.2285156,30.6132812 C94.1884766,30.6132812 93.5073242,31.5141602 93.5073242,33.0742188 C93.5073242,34.6489258 94.1738281,35.5351562 95.2285156,35.5351562 Z M104.80127,29.0239258 C106.793457,29.0239258 108.016602,30.5400391 108.016602,33.0742188 C108.016602,35.6010742 106.800781,37.1245117 104.837891,37.1245117 C103.695312,37.1245117 102.816406,36.5678711 102.398926,35.6816406 L102.35498,35.6816406 L102.35498,39.5634766 L100.216309,39.5634766 L100.216309,29.1484375 L102.325684,29.1484375 L102.325684,30.5180664 L102.369629,30.5180664 C102.794434,29.5952148 103.666016,29.0239258 104.80127,29.0239258 Z M104.083496,35.4033203 C105.152832,35.4033203 105.82666,34.5024414 105.82666,33.0742188 C105.82666,31.6533203 105.152832,30.737793 104.083496,30.737793 C103.036133,30.737793 102.347656,31.6679688 102.347656,33.0742188 C102.347656,34.4951172 103.036133,35.4033203 104.083496,35.4033203 Z M109.115234,37 L109.115234,29.1484375 L111.180664,29.1484375 L111.180664,30.5693359 L111.224609,30.5693359 C111.554199,29.6245117 112.396484,29.0019531 113.46582,29.0019531 C114.601074,29.0019531 115.39209,29.5878906 115.655762,30.6132812 L115.699707,30.6132812 C116.05127,29.6245117 116.98877,29.0019531 118.138672,29.0019531 C119.676758,29.0019531 120.709473,30.0566406 120.709473,31.6386719 L120.709473,37 L118.570801,37 L118.570801,32.1733398 C118.570801,31.2651367 118.116699,30.7670898 117.289062,30.7670898 C116.476074,30.7670898 115.941406,31.3603516 115.941406,32.2319336 L115.941406,37 L113.883301,37 L113.883301,32.1074219 C113.883301,31.2651367 113.407227,30.7670898 112.616211,30.7670898 C111.803223,30.7670898 111.253906,31.3823242 111.253906,32.2612305 L111.253906,37 L109.115234,37 Z M127.264648,34.5976562 L129.227539,34.5976562 C128.993164,36.1357422 127.586914,37.168457 125.645996,37.168457 C123.229004,37.168457 121.778809,35.6230469 121.778809,33.1108398 C121.778809,30.605957 123.243652,28.9799805 125.56543,28.9799805 C127.850586,28.9799805 129.293457,30.5253906 129.293457,32.9130859 L129.293457,33.5649414 L123.880859,33.5649414 L123.880859,33.6967773 C123.880859,34.8173828 124.591309,35.5864258 125.682617,35.5864258 C126.466309,35.5864258 127.066895,35.1982422 127.264648,34.5976562 Z M125.587402,30.5620117 C124.649902,30.5620117 123.976074,31.2724609 123.902832,32.2539062 L127.235352,32.2539062 C127.191406,31.2504883 126.539551,30.5620117 125.587402,30.5620117 Z M130.39209,37 L130.39209,29.1484375 L132.45752,29.1484375 L132.45752,30.5473633 L132.501465,30.5473633 C132.918945,29.5732422 133.746582,29.0019531 134.955078,29.0019531 C136.698242,29.0019531 137.679688,30.1005859 137.679688,31.9389648 L137.679688,37 L135.541016,37 L135.541016,32.3857422 C135.541016,31.3603516 135.057617,30.7744141 134.098145,30.7744141 C133.138672,30.7744141 132.530762,31.4775391 132.530762,32.4956055 L132.530762,37 L130.39209,37 Z M139.605957,27.3393555 L141.744629,27.3393555 L141.744629,29.1484375 L143.194824,29.1484375 L143.194824,30.7597656 L141.744629,30.7597656 L141.744629,34.5170898 C141.744629,35.1176758 142.037598,35.4033203 142.66748,35.4033203 C142.85791,35.4033203 143.055664,35.3886719 143.1875,35.3666992 L143.1875,36.9414062 C142.967773,36.9926758 142.601562,37.0292969 142.169434,37.0292969 C140.32373,37.0292969 139.605957,36.4140625 139.605957,34.8833008 L139.605957,30.7597656 L138.5,30.7597656 L138.5,29.1484375 L139.605957,29.1484375 L139.605957,27.3393555 Z M26.8789062,44.4311523 L30.9145508,44.4311523 C34.0859375,44.4311523 35.9536133,46.3208008 35.9536133,49.675293 C35.9536133,53.0297852 34.0859375,55 30.9145508,55 L26.8789062,55 L26.8789062,44.4311523 Z M29.0908203,46.2548828 L29.0908203,53.1689453 L30.6508789,53.1689453 C32.628418,53.1689453 33.6977539,51.9677734 33.6977539,49.6826172 C33.6977539,47.4707031 32.5991211,46.2548828 30.6508789,46.2548828 L29.0908203,46.2548828 Z M42.3989258,52.5976562 L44.3618164,52.5976562 C44.1274414,54.1357422 42.7211914,55.168457 40.7802734,55.168457 C38.3632812,55.168457 36.9130859,53.6230469 36.9130859,51.1108398 C36.9130859,48.605957 38.3779297,46.9799805 40.699707,46.9799805 C42.9848633,46.9799805 44.4277344,48.5253906 44.4277344,50.9130859 L44.4277344,51.5649414 L39.0151367,51.5649414 L39.0151367,51.6967773 C39.0151367,52.8173828 39.7255859,53.5864258 40.8168945,53.5864258 C41.6005859,53.5864258 42.2011719,53.1982422 42.3989258,52.5976562 Z M40.7216797,48.5620117 C39.7841797,48.5620117 39.1103516,49.2724609 39.0371094,50.2539062 L42.3696289,50.2539062 C42.3256836,49.2504883 41.6738281,48.5620117 40.7216797,48.5620117 Z M52.5942383,47.1484375 L49.8989258,55 L47.4819336,55 L44.7646484,47.1484375 L47.0571289,47.1484375 L48.6904297,53.1103516 L48.734375,53.1103516 L50.3603516,47.1484375 L52.5942383,47.1484375 Z M58.2851562,44.2480469 C61.4125977,44.2480469 63.3828125,46.3500977 63.3828125,49.7192383 C63.3828125,53.0810547 61.4125977,55.1757812 58.2851562,55.1757812 C55.1503906,55.1757812 53.1875,53.0810547 53.1875,49.7192383 C53.1875,46.3500977 55.1503906,44.2480469 58.2851562,44.2480469 Z M58.2851562,46.09375 C56.5566406,46.09375 55.4433594,47.5 55.4433594,49.7192383 C55.4433594,51.9311523 56.5493164,53.3300781 58.2851562,53.3300781 C60.0136719,53.3300781 61.1196289,51.9311523 61.1196289,49.7192383 C61.1196289,47.5 60.0136719,46.09375 58.2851562,46.09375 Z M69.2055664,47.0239258 C71.1977539,47.0239258 72.4208984,48.5400391 72.4208984,51.0742188 C72.4208984,53.6010742 71.2050781,55.1245117 69.2421875,55.1245117 C68.0996094,55.1245117 67.2207031,54.5678711 66.8032227,53.6816406 L66.7592773,53.6816406 L66.7592773,57.5634766 L64.6206055,57.5634766 L64.6206055,47.1484375 L66.7299805,47.1484375 L66.7299805,48.5180664 L66.7739258,48.5180664 C67.1987305,47.5952148 68.0703125,47.0239258 69.2055664,47.0239258 Z M68.487793,53.4033203 C69.5571289,53.4033203 70.230957,52.5024414 70.230957,51.0742188 C70.230957,49.6533203 69.5571289,48.737793 68.487793,48.737793 C67.4404297,48.737793 66.7519531,49.6679688 66.7519531,51.0742188 C66.7519531,52.4951172 67.4404297,53.4033203 68.487793,53.4033203 Z M73.3876953,49.4555664 C73.3876953,47.9614258 74.6767578,46.9799805 76.6762695,46.9799805 C78.6904297,46.9799805 79.9355469,48.0126953 79.9794922,49.5507812 L78.0092773,49.5507812 C77.9433594,48.9135742 77.4672852,48.4814453 76.6762695,48.4814453 C75.9365234,48.4814453 75.4458008,48.8183594 75.4458008,49.3383789 C75.4458008,49.7412109 75.7387695,50.012207 76.5297852,50.1806641 L77.8701172,50.4663086 C79.5107422,50.8105469 80.1845703,51.4550781 80.1845703,52.6049805 C80.1845703,54.1503906 78.7709961,55.168457 76.7495117,55.168457 C74.581543,55.168457 73.3291016,54.1577148 73.1899414,52.6123047 L75.2773438,52.6123047 C75.4091797,53.3007812 75.8999023,53.6669922 76.7495117,53.6669922 C77.5551758,53.6669922 78.0532227,53.3374023 78.0532227,52.824707 C78.0532227,52.4072266 77.7822266,52.1728516 77.0131836,51.9970703 L75.6728516,51.71875 C74.1567383,51.3964844 73.3876953,50.6347656 73.3876953,49.4555664 Z M33.800293,73 L32.9946289,70.4365234 L29.28125,70.4365234 L28.4755859,73 L26.2050781,73 L29.8745117,62.4311523 L32.4746094,62.4311523 L36.1513672,73 L33.800293,73 Z M31.1123047,64.4526367 L29.7573242,68.78125 L32.5185547,68.78125 L31.1635742,64.4526367 L31.1123047,64.4526367 Z M44.0395508,65.1484375 L44.0395508,73 L41.9741211,73 L41.9741211,71.5864258 L41.9301758,71.5864258 C41.5419922,72.5751953 40.765625,73.1464844 39.5791016,73.1464844 C37.8798828,73.1464844 36.7519531,72.0405273 36.7519531,70.2094727 L36.7519531,65.1484375 L38.890625,65.1484375 L38.890625,69.7626953 C38.890625,70.8100586 39.4106445,71.3666992 40.3554688,71.3666992 C41.3076172,71.3666992 41.9008789,70.6855469 41.9008789,69.6455078 L41.9008789,65.1484375 L44.0395508,65.1484375 Z M46.0024414,63.3393555 L48.1411133,63.3393555 L48.1411133,65.1484375 L49.5913086,65.1484375 L49.5913086,66.7597656 L48.1411133,66.7597656 L48.1411133,70.5170898 C48.1411133,71.1176758 48.434082,71.4033203 49.0639648,71.4033203 C49.2543945,71.4033203 49.4521484,71.3886719 49.5839844,71.3666992 L49.5839844,72.9414062 C49.3642578,72.9926758 48.9980469,73.0292969 48.565918,73.0292969 C46.7202148,73.0292969 46.0024414,72.4140625 46.0024414,70.8833008 L46.0024414,66.7597656 L44.8964844,66.7597656 L44.8964844,65.1484375 L46.0024414,65.1484375 L46.0024414,63.3393555 Z M54.2568359,73.168457 C51.8837891,73.168457 50.3676758,71.6450195 50.3676758,69.0668945 C50.3676758,66.5253906 51.9057617,64.9799805 54.2568359,64.9799805 C56.6079102,64.9799805 58.1459961,66.5180664 58.1459961,69.0668945 C58.1459961,71.6523438 56.6298828,73.168457 54.2568359,73.168457 Z M54.2568359,71.5351562 C55.3041992,71.5351562 55.9707031,70.6489258 55.9707031,69.0742188 C55.9707031,67.5141602 55.296875,66.6132812 54.2568359,66.6132812 C53.2167969,66.6132812 52.5356445,67.5141602 52.5356445,69.0742188 C52.5356445,70.6489258 53.2021484,71.5351562 54.2568359,71.5351562 Z M59.2446289,73 L59.2446289,65.1484375 L61.3100586,65.1484375 L61.3100586,66.5693359 L61.3540039,66.5693359 C61.6835938,65.6245117 62.5258789,65.0019531 63.5952148,65.0019531 C64.7304688,65.0019531 65.5214844,65.5878906 65.7851562,66.6132812 L65.8291016,66.6132812 C66.1806641,65.6245117 67.1181641,65.0019531 68.2680664,65.0019531 C69.8061523,65.0019531 70.8388672,66.0566406 70.8388672,67.6386719 L70.8388672,73 L68.7001953,73 L68.7001953,68.1733398 C68.7001953,67.2651367 68.2460938,66.7670898 67.418457,66.7670898 C66.6054688,66.7670898 66.0708008,67.3603516 66.0708008,68.2319336 L66.0708008,73 L64.0126953,73 L64.0126953,68.1074219 C64.0126953,67.2651367 63.5366211,66.7670898 62.7456055,66.7670898 C61.9326172,66.7670898 61.3833008,67.3823242 61.3833008,68.2612305 L61.3833008,73 L59.2446289,73 Z M74.5229492,73.1245117 C73.0288086,73.1245117 71.8935547,72.1577148 71.8935547,70.7441406 C71.8935547,69.315918 72.9921875,68.4882812 74.9477539,68.3710938 L76.925293,68.2539062 L76.925293,67.7338867 C76.925293,67.0014648 76.4125977,66.5766602 75.6069336,66.5766602 C74.8085938,66.5766602 74.3032227,66.972168 74.2006836,67.5507812 L72.2451172,67.5507812 C72.3256836,66.0273438 73.6220703,64.9799805 75.7021484,64.9799805 C77.7163086,64.9799805 79.0273438,66.0200195 79.0273438,67.6020508 L79.0273438,73 L76.9619141,73 L76.9619141,71.7988281 L76.9179688,71.7988281 C76.4785156,72.6337891 75.5043945,73.1245117 74.5229492,73.1245117 Z M75.2260742,71.5791016 C76.15625,71.5791016 76.925293,70.9711914 76.925293,70.121582 L76.925293,69.550293 L75.2700195,69.652832 C74.4716797,69.7114258 74.0175781,70.0703125 74.0175781,70.6269531 C74.0175781,71.2128906 74.5009766,71.5791016 75.2260742,71.5791016 Z M80.9755859,63.3393555 L83.1142578,63.3393555 L83.1142578,65.1484375 L84.5644531,65.1484375 L84.5644531,66.7597656 L83.1142578,66.7597656 L83.1142578,70.5170898 C83.1142578,71.1176758 83.4072266,71.4033203 84.0371094,71.4033203 C84.2275391,71.4033203 84.425293,71.3886719 84.5571289,71.3666992 L84.5571289,72.9414062 C84.3374023,72.9926758 83.9711914,73.0292969 83.5390625,73.0292969 C81.6933594,73.0292969 80.9755859,72.4140625 80.9755859,70.8833008 L80.9755859,66.7597656 L79.8696289,66.7597656 L79.8696289,65.1484375 L80.9755859,65.1484375 L80.9755859,63.3393555 Z M86.8349609,64.0864258 C86.2124023,64.0864258 85.7216797,63.5883789 85.7216797,62.987793 C85.7216797,62.3798828 86.2124023,61.8891602 86.8349609,61.8891602 C87.4575195,61.8891602 87.9482422,62.3798828 87.9482422,62.987793 C87.9482422,63.5883789 87.4575195,64.0864258 86.8349609,64.0864258 Z M85.7729492,73 L85.7729492,65.1484375 L87.9116211,65.1484375 L87.9116211,73 L85.7729492,73 Z M92.9360352,73.168457 C90.5629883,73.168457 89.046875,71.6450195 89.046875,69.0668945 C89.046875,66.5253906 90.5849609,64.9799805 92.9360352,64.9799805 C95.2871094,64.9799805 96.8251953,66.5180664 96.8251953,69.0668945 C96.8251953,71.6523438 95.309082,73.168457 92.9360352,73.168457 Z M92.9360352,71.5351562 C93.9833984,71.5351562 94.6499023,70.6489258 94.6499023,69.0742188 C94.6499023,67.5141602 93.9760742,66.6132812 92.9360352,66.6132812 C91.8959961,66.6132812 91.2148438,67.5141602 91.2148438,69.0742188 C91.2148438,70.6489258 91.8813477,71.5351562 92.9360352,71.5351562 Z M97.9238281,73 L97.9238281,65.1484375 L99.9892578,65.1484375 L99.9892578,66.5473633 L100.033203,66.5473633 C100.450684,65.5732422 101.27832,65.0019531 102.486816,65.0019531 C104.22998,65.0019531 105.211426,66.1005859 105.211426,67.9389648 L105.211426,73 L103.072754,73 L103.072754,68.3857422 C103.072754,67.3603516 102.589355,66.7744141 101.629883,66.7744141 C100.67041,66.7744141 100.0625,67.4775391 100.0625,68.4956055 L100.0625,73 L97.9238281,73 Z M110.814453,75.2705078 L108.836914,75.2705078 L112.594238,62.4311523 L114.564453,62.4311523 L110.814453,75.2705078 Z M118.006836,69.9824219 L120.094238,69.9824219 C120.233398,70.8686523 121.126953,71.3959961 122.328125,71.3959961 C123.507324,71.3959961 124.312988,70.824707 124.312988,70.0483398 C124.312988,69.3525391 123.814941,68.9570312 122.489258,68.6860352 L121.375977,68.4663086 C119.266602,68.0488281 118.233887,67.0380859 118.233887,65.4633789 C118.233887,63.5297852 119.918457,62.2480469 122.269531,62.2480469 C124.737793,62.2480469 126.290527,63.5371094 126.327148,65.4780273 L124.239746,65.4780273 C124.166504,64.5771484 123.382812,64.0351562 122.269531,64.0351562 C121.178223,64.0351562 120.445801,64.5478516 120.445801,65.3242188 C120.445801,65.9760742 120.958496,66.3789062 122.203613,66.6279297 L123.324219,66.8549805 C125.558105,67.3017578 126.532227,68.2026367 126.532227,69.8066406 C126.532227,71.8720703 124.913574,73.1757812 122.269531,73.1757812 C119.75,73.1757812 118.072754,71.9746094 118.006836,69.9824219 Z M134.830566,68.0708008 L132.845703,68.0708008 C132.721191,67.2431641 132.171875,66.6572266 131.292969,66.6572266 C130.238281,66.6572266 129.579102,67.5507812 129.579102,69.0668945 C129.579102,70.6123047 130.238281,71.4912109 131.300293,71.4912109 C132.157227,71.4912109 132.713867,70.9785156 132.845703,70.121582 L134.837891,70.121582 C134.728027,71.9746094 133.34375,73.168457 131.27832,73.168457 C128.912598,73.168457 127.411133,71.6303711 127.411133,69.0668945 C127.411133,66.5473633 128.912598,64.9799805 131.263672,64.9799805 C133.387695,64.9799805 134.735352,66.2910156 134.830566,68.0708008 Z M135.870605,73 L135.870605,65.1484375 L137.936035,65.1484375 L137.936035,66.5620117 L137.97998,66.5620117 C138.258301,65.565918 138.924805,65.0239258 139.847656,65.0239258 C140.09668,65.0239258 140.309082,65.0605469 140.455566,65.1044922 L140.455566,66.9868164 C140.279785,66.9135742 139.986816,66.8623047 139.679199,66.8623047 C138.624512,66.8623047 138.009277,67.5068359 138.009277,68.612793 L138.009277,73 L135.870605,73 Z M142.425781,64.0864258 C141.803223,64.0864258 141.3125,63.5883789 141.3125,62.987793 C141.3125,62.3798828 141.803223,61.8891602 142.425781,61.8891602 C143.04834,61.8891602 143.539062,62.3798828 143.539062,62.987793 C143.539062,63.5883789 143.04834,64.0864258 142.425781,64.0864258 Z M141.36377,73 L141.36377,65.1484375 L143.502441,65.1484375 L143.502441,73 L141.36377,73 Z M149.508301,65.0239258 C151.500488,65.0239258 152.723633,66.5400391 152.723633,69.0742188 C152.723633,71.6010742 151.507812,73.1245117 149.544922,73.1245117 C148.402344,73.1245117 147.523438,72.5678711 147.105957,71.6816406 L147.062012,71.6816406 L147.062012,75.5634766 L144.92334,75.5634766 L144.92334,65.1484375 L147.032715,65.1484375 L147.032715,66.5180664 L147.07666,66.5180664 C147.501465,65.5952148 148.373047,65.0239258 149.508301,65.0239258 Z M148.790527,71.4033203 C149.859863,71.4033203 150.533691,70.5024414 150.533691,69.0742188 C150.533691,67.6533203 149.859863,66.737793 148.790527,66.737793 C147.743164,66.737793 147.054688,67.6679688 147.054688,69.0742188 C147.054688,70.4951172 147.743164,71.4033203 148.790527,71.4033203 Z M154.393555,63.3393555 L156.532227,63.3393555 L156.532227,65.1484375 L157.982422,65.1484375 L157.982422,66.7597656 L156.532227,66.7597656 L156.532227,70.5170898 C156.532227,71.1176758 156.825195,71.4033203 157.455078,71.4033203 C157.645508,71.4033203 157.843262,71.3886719 157.975098,71.3666992 L157.975098,72.9414062 C157.755371,72.9926758 157.38916,73.0292969 156.957031,73.0292969 C155.111328,73.0292969 154.393555,72.4140625 154.393555,70.8833008 L154.393555,66.7597656 L153.287598,66.7597656 L153.287598,65.1484375 L154.393555,65.1484375 L154.393555,63.3393555 Z M160.25293,64.0864258 C159.630371,64.0864258 159.139648,63.5883789 159.139648,62.987793 C159.139648,62.3798828 159.630371,61.8891602 160.25293,61.8891602 C160.875488,61.8891602 161.366211,62.3798828 161.366211,62.987793 C161.366211,63.5883789 160.875488,64.0864258 160.25293,64.0864258 Z M159.190918,73 L159.190918,65.1484375 L161.32959,65.1484375 L161.32959,73 L159.190918,73 Z M162.750488,73 L162.750488,65.1484375 L164.815918,65.1484375 L164.815918,66.5473633 L164.859863,66.5473633 C165.277344,65.5732422 166.10498,65.0019531 167.313477,65.0019531 C169.056641,65.0019531 170.038086,66.1005859 170.038086,67.9389648 L170.038086,73 L167.899414,73 L167.899414,68.3857422 C167.899414,67.3603516 167.416016,66.7744141 166.456543,66.7744141 C165.49707,66.7744141 164.88916,67.4775391 164.88916,68.4956055 L164.88916,73 L162.750488,73 Z M174.981934,75.9589844 C172.916504,75.9589844 171.517578,74.9555664 171.349121,73.5566406 L173.443848,73.5566406 C173.612305,74.0986328 174.227539,74.4648438 175.040527,74.4648438 C176.146484,74.4648438 176.761719,73.8569336 176.761719,72.9487305 L176.761719,71.5717773 L176.717773,71.5717773 C176.351562,72.4067383 175.428711,72.9780273 174.293457,72.9780273 C172.374512,72.9780273 171.107422,71.4985352 171.107422,69.0449219 C171.107422,66.5546875 172.337891,65.0239258 174.330078,65.0239258 C175.458008,65.0239258 176.344238,65.6171875 176.754395,66.5180664 L176.791016,66.5180664 L176.791016,65.1484375 L178.900391,65.1484375 L178.900391,72.8901367 C178.900391,74.7578125 177.333008,75.9589844 174.981934,75.9589844 Z M175.018555,71.3300781 C176.087891,71.3300781 176.769043,70.4804688 176.769043,69.0595703 C176.769043,67.6459961 176.087891,66.737793 175.018555,66.737793 C173.963867,66.737793 173.297363,67.6313477 173.297363,69.0595703 C173.297363,70.4951172 173.956543,71.3300781 175.018555,71.3300781 Z" id="API-Development-DevO" fill="#FFFFFF"></path>
    </g>
</svg>