<?xml version="1.0" encoding="UTF-8"?>
<svg width="400px" height="100px" viewBox="0 0 400 100" version="1.1" xmlns="http://www.w3.org/2000/svg" xmlns:xlink="http://www.w3.org/1999/xlink">
    <!-- Generator: Sketch 51.3 (57544) - http://www.bohemiancoding.com/sketch -->
    <title>Artboard</title>
    <desc>Created with Sketch.</desc>
    <defs></defs>
    <g id="Artboard" stroke="none" stroke-width="1" fill="none" fill-rule="evenodd">
        <rect fill="#150F30" x="0" y="0" width="400" height="100"></rect>
        <path d="M104.760259,57.4763144 L103,57.4763144 L103,48.4622592 L104.534897,48.4622592 L108.640137,54.3342009 L108.688864,54.3342009 L108.688864,48.4622592 L110.449122,48.4622592 L110.449122,57.4763144 L108.926407,57.4763144 L104.815076,51.573139 L104.760259,51.573139 L104.760259,57.4763144 Z M116.083169,55.4273816 L117.715519,55.4273816 C117.520612,56.7391983 116.351166,57.6199896 114.737088,57.6199896 C112.727104,57.6199896 111.521114,56.3019261 111.521114,54.159292 C111.521114,52.0229047 112.739286,50.636127 114.670089,50.636127 C116.570437,50.636127 117.770337,51.9541905 117.770337,53.9906299 L117.770337,54.5465903 L113.269191,54.5465903 L113.269191,54.6590318 C113.269191,55.614784 113.860004,56.2706923 114.767543,56.2706923 C115.419265,56.2706923 115.918715,55.9396148 116.083169,55.4273816 Z M114.688361,51.9854243 C113.908731,51.9854243 113.348372,52.5913587 113.287464,53.4284227 L116.058805,53.4284227 C116.02226,52.5726184 115.480173,51.9854243 114.688361,51.9854243 Z M119.159053,49.2368558 L120.937584,49.2368558 L120.937584,50.7798022 L122.143575,50.7798022 L122.143575,52.1540864 L120.937584,52.1540864 L120.937584,55.3586674 C120.937584,55.8709006 121.181219,56.1145237 121.705033,56.1145237 C121.863395,56.1145237 122.027848,56.1020302 122.137484,56.08329 L122.137484,57.4263404 C121.954758,57.4700677 121.650215,57.5013014 121.290854,57.5013014 C119.755957,57.5013014 119.159053,56.9765747 119.159053,55.6710047 L119.159053,52.1540864 L118.239333,52.1540864 L118.239333,50.7798022 L119.159053,50.7798022 L119.159053,49.2368558 Z M132.278767,50.7798022 L130.548962,57.4763144 L128.654705,57.4763144 L127.473078,52.7412806 L127.436533,52.7412806 L126.260997,57.4763144 L124.391102,57.4763144 L122.655207,50.7798022 L124.44592,50.7798022 L125.432639,55.7459656 L125.469185,55.7459656 L126.626448,50.7798022 L128.331889,50.7798022 L129.495243,55.7459656 L129.531789,55.7459656 L130.524599,50.7798022 L132.278767,50.7798022 Z M135.878465,57.6199896 C133.905027,57.6199896 132.644218,56.3206663 132.644218,54.1218116 C132.644218,51.9541905 133.923299,50.636127 135.878465,50.636127 C137.833632,50.636127 139.112712,51.9479438 139.112712,54.1218116 C139.112712,56.3269131 137.851904,57.6199896 135.878465,57.6199896 Z M135.878465,56.2269651 C136.749458,56.2269651 137.303727,55.4711088 137.303727,54.1280583 C137.303727,52.7975013 136.743368,52.0291515 135.878465,52.0291515 C135.013563,52.0291515 134.447113,52.7975013 134.447113,54.1280583 C134.447113,55.4711088 135.001381,56.2269651 135.878465,56.2269651 Z M140.026341,57.4763144 L140.026341,50.7798022 L141.743964,50.7798022 L141.743964,51.9854243 L141.780509,51.9854243 C142.011962,51.1358667 142.56623,50.6736075 143.333679,50.6736075 C143.540768,50.6736075 143.717403,50.7048412 143.83922,50.7423217 L143.83922,52.3477356 C143.693039,52.2852681 143.449405,52.2415409 143.193589,52.2415409 C142.316505,52.2415409 141.804873,52.7912546 141.804873,53.7345133 L141.804873,57.4763144 L140.026341,57.4763144 Z M146.409563,53.4659032 L148.626637,50.7798022 L150.642711,50.7798022 L148.151549,53.6533056 L150.764529,57.4763144 L148.717999,57.4763144 L146.848105,54.752733 L146.3852,55.2649662 L146.3852,57.4763144 L144.606669,57.4763144 L144.606669,48.4622592 L146.3852,48.4622592 L146.3852,53.4659032 L146.409563,53.4659032 Z M159.651094,57.4763144 L158.981099,55.2899531 L155.893033,55.2899531 L155.223039,57.4763144 L153.334872,57.4763144 L156.386393,48.4622592 L158.548648,48.4622592 L161.60626,57.4763144 L159.651094,57.4763144 Z M157.415748,50.1863613 L156.288939,53.8781884 L158.585194,53.8781884 L157.458384,50.1863613 L157.415748,50.1863613 Z M168.166117,50.7798022 L168.166117,57.4763144 L166.448495,57.4763144 L166.448495,56.2706923 L166.411949,56.2706923 C166.089134,57.1140031 165.443503,57.6012493 164.456783,57.6012493 C163.043703,57.6012493 162.105711,56.6579906 162.105711,55.096304 L162.105711,50.7798022 L163.884242,50.7798022 L163.884242,54.7152525 C163.884242,55.6085372 164.316693,56.08329 165.102414,56.08329 C165.894226,56.08329 166.387586,55.5023425 166.387586,54.6153045 L166.387586,50.7798022 L168.166117,50.7798022 Z M169.798468,49.2368558 L171.576999,49.2368558 L171.576999,50.7798022 L172.78299,50.7798022 L172.78299,52.1540864 L171.576999,52.1540864 L171.576999,55.3586674 C171.576999,55.8709006 171.820634,56.1145237 172.344448,56.1145237 C172.50281,56.1145237 172.667263,56.1020302 172.776899,56.08329 L172.776899,57.4263404 C172.594173,57.4700677 172.28963,57.5013014 171.930269,57.5013014 C170.395372,57.5013014 169.798468,56.9765747 169.798468,55.6710047 L169.798468,52.1540864 L168.878748,52.1540864 L168.878748,50.7798022 L169.798468,50.7798022 L169.798468,49.2368558 Z M176.662868,57.6199896 C174.689429,57.6199896 173.428621,56.3206663 173.428621,54.1218116 C173.428621,51.9541905 174.707701,50.636127 176.662868,50.636127 C178.618034,50.636127 179.897115,51.9479438 179.897115,54.1218116 C179.897115,56.3269131 178.636307,57.6199896 176.662868,57.6199896 Z M176.662868,56.2269651 C177.533861,56.2269651 178.088129,55.4711088 178.088129,54.1280583 C178.088129,52.7975013 177.52777,52.0291515 176.662868,52.0291515 C175.797966,52.0291515 175.231515,52.7975013 175.231515,54.1280583 C175.231515,55.4711088 175.785784,56.2269651 176.662868,56.2269651 Z M180.810744,57.4763144 L180.810744,50.7798022 L182.528366,50.7798022 L182.528366,51.991671 L182.564912,51.991671 C182.839,51.1858407 183.539449,50.6548673 184.428715,50.6548673 C185.372798,50.6548673 186.030611,51.154607 186.249882,52.0291515 L186.286427,52.0291515 C186.578789,51.1858407 187.358419,50.6548673 188.314684,50.6548673 C189.593765,50.6548673 190.452576,51.5543988 190.452576,52.903696 L190.452576,57.4763144 L188.674045,57.4763144 L188.674045,53.3597085 C188.674045,52.5851119 188.296411,52.1603332 187.608144,52.1603332 C186.932059,52.1603332 186.487426,52.6663196 186.487426,53.4096825 L186.487426,57.4763144 L184.775894,57.4763144 L184.775894,53.3034878 C184.775894,52.5851119 184.379988,52.1603332 183.722175,52.1603332 C183.04609,52.1603332 182.589275,52.6850599 182.589275,53.4346694 L182.589275,57.4763144 L180.810744,57.4763144 Z M193.516279,57.5825091 C192.273743,57.5825091 191.32966,56.7579386 191.32966,55.5523165 C191.32966,54.3342009 192.243289,53.6283186 193.869549,53.5283706 L195.514081,53.4284227 L195.514081,52.9849037 C195.514081,52.360229 195.087721,51.9979178 194.417726,51.9979178 C193.753822,51.9979178 193.333553,52.3352421 193.248281,52.828735 L191.622021,52.828735 C191.689021,51.5294118 192.767103,50.636127 194.496907,50.636127 C196.171894,50.636127 197.262158,51.523165 197.262158,52.8724623 L197.262158,57.4763144 L195.544535,57.4763144 L195.544535,56.451848 L195.50799,56.451848 C195.142539,57.1639771 194.332454,57.5825091 193.516279,57.5825091 Z M194.101002,56.2644456 C194.874541,56.2644456 195.514081,55.7459656 195.514081,55.0213431 L195.514081,54.5340968 L194.137547,54.6215513 C193.473643,54.6715252 193.09601,54.9776158 193.09601,55.4523686 C193.09601,55.9521083 193.498006,56.2644456 194.101002,56.2644456 Z M198.882327,49.2368558 L200.660858,49.2368558 L200.660858,50.7798022 L201.866849,50.7798022 L201.866849,52.1540864 L200.660858,52.1540864 L200.660858,55.3586674 C200.660858,55.8709006 200.904493,56.1145237 201.428307,56.1145237 C201.586669,56.1145237 201.751122,56.1020302 201.860758,56.08329 L201.860758,57.4263404 C201.678032,57.4700677 201.373489,57.5013014 201.014128,57.5013014 C199.479231,57.5013014 198.882327,56.9765747 198.882327,55.6710047 L198.882327,52.1540864 L197.962607,52.1540864 L197.962607,50.7798022 L198.882327,50.7798022 L198.882327,49.2368558 Z M203.755016,49.8740239 C203.237292,49.8740239 202.829205,49.4492452 202.829205,48.937012 C202.829205,48.418532 203.237292,48 203.755016,48 C204.272739,48 204.680826,48.418532 204.680826,48.937012 C204.680826,49.4492452 204.272739,49.8740239 203.755016,49.8740239 Z M202.871841,57.4763144 L202.871841,50.7798022 L204.650372,50.7798022 L204.650372,57.4763144 L202.871841,57.4763144 Z M208.828702,57.6199896 C206.855264,57.6199896 205.594455,56.3206663 205.594455,54.1218116 C205.594455,51.9541905 206.873536,50.636127 208.828702,50.636127 C210.783869,50.636127 212.062949,51.9479438 212.062949,54.1218116 C212.062949,56.3269131 210.802141,57.6199896 208.828702,57.6199896 Z M208.828702,56.2269651 C209.699695,56.2269651 210.253964,55.4711088 210.253964,54.1280583 C210.253964,52.7975013 209.693605,52.0291515 208.828702,52.0291515 C207.9638,52.0291515 207.39735,52.7975013 207.39735,54.1280583 C207.39735,55.4711088 207.951618,56.2269651 208.828702,56.2269651 Z M212.976578,57.4763144 L212.976578,50.7798022 L214.694201,50.7798022 L214.694201,51.9729308 L214.730746,51.9729308 C215.077925,51.1421135 215.766193,50.6548673 216.771185,50.6548673 C218.220809,50.6548673 219.036985,51.5918792 219.036985,53.1598126 L219.036985,57.4763144 L217.258453,57.4763144 L217.258453,53.5408641 C217.258453,52.6663196 216.856457,52.1665799 216.058554,52.1665799 C215.260651,52.1665799 214.75511,52.7662676 214.75511,53.6345653 L214.75511,57.4763144 L212.976578,57.4763144 Z M224.567486,57.5825091 C223.324951,57.5825091 222.380867,56.7579386 222.380867,55.5523165 C222.380867,54.3342009 223.294496,53.6283186 224.920756,53.5283706 L226.565288,53.4284227 L226.565288,52.9849037 C226.565288,52.360229 226.138928,51.9979178 225.468933,51.9979178 C224.80503,51.9979178 224.38476,52.3352421 224.299488,52.828735 L222.673228,52.828735 C222.740228,51.5294118 223.81831,50.636127 225.548115,50.636127 C227.223101,50.636127 228.313365,51.523165 228.313365,52.8724623 L228.313365,57.4763144 L226.595743,57.4763144 L226.595743,56.451848 L226.559198,56.451848 C226.193746,57.1639771 225.383661,57.5825091 224.567486,57.5825091 Z M225.152209,56.2644456 C225.925748,56.2644456 226.565288,55.7459656 226.565288,55.0213431 L226.565288,54.5340968 L225.188754,54.6215513 C224.52485,54.6715252 224.147217,54.9776158 224.147217,55.4523686 C224.147217,55.9521083 224.549214,56.2644456 225.152209,56.2644456 Z M229.458447,57.4763144 L229.458447,50.7798022 L231.17607,50.7798022 L231.17607,51.9729308 L231.212615,51.9729308 C231.559794,51.1421135 232.248061,50.6548673 233.253053,50.6548673 C234.702678,50.6548673 235.518853,51.5918792 235.518853,53.1598126 L235.518853,57.4763144 L233.740322,57.4763144 L233.740322,53.5408641 C233.740322,52.6663196 233.338325,52.1665799 232.540423,52.1665799 C231.74252,52.1665799 231.236978,52.7662676 231.236978,53.6345653 L231.236978,57.4763144 L229.458447,57.4763144 Z M239.069825,57.5825091 C237.437474,57.5825091 236.408119,56.2581989 236.408119,54.1155648 C236.408119,51.991671 237.443565,50.6736075 239.082007,50.6736075 C240.02609,50.6736075 240.756994,51.1858407 241.073718,51.9292035 L241.110263,51.9292035 L241.110263,48.4622592 L242.888795,48.4622592 L242.888795,57.4763144 L241.134627,57.4763144 L241.134627,56.3269131 L241.104173,56.3269131 C240.787448,57.0640292 240.032181,57.5825091 239.069825,57.5825091 Z M239.67282,52.1353462 C238.777464,52.1353462 238.229286,52.903696 238.229286,54.1280583 C238.229286,55.3586674 238.777464,56.1145237 239.67282,56.1145237 C240.555995,56.1145237 241.122445,55.3524206 241.122445,54.1280583 C241.122445,52.9099427 240.555995,52.1353462 239.67282,52.1353462 Z M246.360585,54.9026549 L248.09648,54.9026549 C248.212207,55.6585112 248.955292,56.1082769 249.954193,56.1082769 C250.934822,56.1082769 251.604816,55.6210307 251.604816,54.9588756 C251.604816,54.3654347 251.190638,54.0281104 250.088192,53.7969807 L249.162381,53.6095783 C247.408213,53.2535138 246.549402,52.3914628 246.549402,51.0484123 C246.549402,49.3992712 247.9503,48.3060906 249.905466,48.3060906 C251.958086,48.3060906 253.249349,49.405518 253.279803,51.0609058 L251.543908,51.0609058 C251.482999,50.292556 250.831277,49.8302967 249.905466,49.8302967 C248.997928,49.8302967 248.388842,50.267569 248.388842,50.9297241 C248.388842,51.4856845 248.815202,51.8292556 249.850648,52.041645 L250.78255,52.2352941 C252.640262,52.6163457 253.450347,53.3846955 253.450347,54.752733 C253.450347,56.5143155 252.104267,57.6262363 249.905466,57.6262363 C247.81021,57.6262363 246.415403,56.6017699 246.360585,54.9026549 Z M260.351292,53.272254 L258.700669,53.272254 C258.597124,52.5663717 258.14031,52.066632 257.409406,52.066632 C256.532322,52.066632 255.984145,52.828735 255.984145,54.1218116 C255.984145,55.4398751 256.532322,56.1894846 257.415497,56.1894846 C258.128128,56.1894846 258.591033,55.7522124 258.700669,55.0213431 L260.357383,55.0213431 C260.26602,56.6017699 259.114847,57.6199896 257.397225,57.6199896 C255.429877,57.6199896 254.18125,56.3081728 254.18125,54.1218116 C254.18125,51.9729308 255.429877,50.636127 257.385043,50.636127 C259.151392,50.636127 260.272111,51.7542946 260.351292,53.272254 Z M261.216194,57.4763144 L261.216194,50.7798022 L262.933817,50.7798022 L262.933817,51.9854243 L262.970362,51.9854243 C263.201815,51.1358667 263.756083,50.6736075 264.523531,50.6736075 C264.730621,50.6736075 264.907256,50.7048412 265.029073,50.7423217 L265.029073,52.3477356 C264.882892,52.2852681 264.639258,52.2415409 264.383442,52.2415409 C263.506358,52.2415409 262.994725,52.7912546 262.994725,53.7345133 L262.994725,57.4763144 L261.216194,57.4763144 Z M266.667514,49.8740239 C266.149791,49.8740239 265.741704,49.4492452 265.741704,48.937012 C265.741704,48.418532 266.149791,48 266.667514,48 C267.185238,48 267.593325,48.418532 267.593325,48.937012 C267.593325,49.4492452 267.185238,49.8740239 266.667514,49.8740239 Z M265.78434,57.4763144 L265.78434,50.7798022 L267.562871,50.7798022 L267.562871,57.4763144 L265.78434,57.4763144 Z M272.557377,50.6736075 C274.214091,50.6736075 275.231264,51.966684 275.231264,54.1280583 C275.231264,56.2831858 274.220181,57.5825091 272.587831,57.5825091 C271.637657,57.5825091 270.906753,57.1077564 270.559574,56.3519001 L270.523029,56.3519001 L270.523029,59.6626757 L268.744498,59.6626757 L268.744498,50.7798022 L270.498666,50.7798022 L270.498666,51.9479438 L270.535211,51.9479438 C270.888481,51.1608537 271.613293,50.6736075 272.557377,50.6736075 Z M271.960472,56.1145237 C272.849738,56.1145237 273.410097,55.3461739 273.410097,54.1280583 C273.410097,52.9161895 272.849738,52.1353462 271.960472,52.1353462 C271.089479,52.1353462 270.516938,52.928683 270.516938,54.1280583 C270.516938,55.3399271 271.089479,56.1145237 271.960472,56.1145237 Z M276.619981,49.2368558 L278.398512,49.2368558 L278.398512,50.7798022 L279.604502,50.7798022 L279.604502,52.1540864 L278.398512,52.1540864 L278.398512,55.3586674 C278.398512,55.8709006 278.642146,56.1145237 279.16596,56.1145237 C279.324323,56.1145237 279.488776,56.1020302 279.598411,56.08329 L279.598411,57.4263404 C279.415686,57.4700677 279.111143,57.5013014 278.751782,57.5013014 C277.216885,57.5013014 276.619981,56.9765747 276.619981,55.6710047 L276.619981,52.1540864 L275.700261,52.1540864 L275.700261,50.7798022 L276.619981,50.7798022 L276.619981,49.2368558 Z M281.492669,49.8740239 C280.974946,49.8740239 280.566858,49.4492452 280.566858,48.937012 C280.566858,48.418532 280.974946,48 281.492669,48 C282.010392,48 282.41848,48.418532 282.41848,48.937012 C282.41848,49.4492452 282.010392,49.8740239 281.492669,49.8740239 Z M280.609494,57.4763144 L280.609494,50.7798022 L282.388025,50.7798022 L282.388025,57.4763144 L280.609494,57.4763144 Z M283.569652,57.4763144 L283.569652,50.7798022 L285.287275,50.7798022 L285.287275,51.9729308 L285.32382,51.9729308 C285.670999,51.1421135 286.359267,50.6548673 287.364259,50.6548673 C288.813883,50.6548673 289.630059,51.5918792 289.630059,53.1598126 L289.630059,57.4763144 L287.851527,57.4763144 L287.851527,53.5408641 C287.851527,52.6663196 287.449531,52.1665799 286.651628,52.1665799 C285.853725,52.1665799 285.348184,52.7662676 285.348184,53.6345653 L285.348184,57.4763144 L283.569652,57.4763144 Z M293.74139,60 C292.023767,60 290.860413,59.1441957 290.720323,57.9510672 L292.462309,57.9510672 C292.602399,58.4133264 293.114031,58.7256637 293.790116,58.7256637 C294.709836,58.7256637 295.221469,58.2071838 295.221469,57.4325872 L295.221469,56.2581989 L295.184924,56.2581989 C294.880381,56.970328 294.112932,57.4575742 293.168849,57.4575742 C291.573043,57.4575742 290.519324,56.1957314 290.519324,54.1030713 C290.519324,51.9791775 291.542589,50.6736075 293.199303,50.6736075 C294.137296,50.6736075 294.87429,51.179594 295.215378,51.9479438 L295.245832,51.9479438 L295.245832,50.7798022 L297,50.7798022 L297,57.3826132 C297,58.9755336 295.696556,60 293.74139,60 Z M293.771844,56.0520562 C294.66111,56.0520562 295.22756,55.3274336 295.22756,54.1155648 C295.22756,52.9099427 294.66111,52.1353462 293.771844,52.1353462 C292.89476,52.1353462 292.340492,52.8974492 292.340492,54.1155648 C292.340492,55.3399271 292.888669,56.0520562 293.771844,56.0520562 Z" id="Network-Automation-a" fill="#FFFFFF"></path>
        <path d="M75.258196,42.0316015 C71.4098178,42.0316015 69,39.4820568 69,35.2388859 C69,31.0048206 71.4281434,28.4461703 75.258196,28.4461703 C78.4376894,28.4461703 80.85667,30.449384 81.0674146,33.390466 L78.3735498,33.390466 C78.1169913,31.7787895 76.8708497,30.7225495 75.258196,30.7225495 C73.1690764,30.7225495 71.822144,32.4617033 71.822144,35.2297804 C71.822144,38.0342796 73.1507508,39.7643278 75.2673588,39.7643278 C76.907501,39.7643278 78.0895028,38.8082485 78.3827126,37.2512051 L81.0765774,37.2512051 C80.765042,40.1831816 78.5018291,42.0316015 75.258196,42.0316015 Z M91.6229662,32.051955 L91.6229662,41.8130691 L89.0390552,41.8130691 L89.0390552,40.0557043 L88.9840783,40.0557043 C88.4984496,41.2849491 87.5271923,41.9951794 86.0428178,41.9951794 C83.917047,41.9951794 82.505975,40.6202464 82.505975,38.3438672 L82.505975,32.051955 L85.1815141,32.051955 L85.1815141,37.7884306 C85.1815141,39.0905196 85.8320733,39.7825388 87.0140752,39.7825388 C88.2052399,39.7825388 88.9474271,38.9357258 88.9474271,37.6427424 L88.9474271,32.051955 L91.6229662,32.051955 Z M93.3638992,41.8130691 L93.3638992,32.051955 L95.9478103,32.051955 L95.9478103,33.8093198 L96.0027872,33.8093198 C96.3509738,32.5709695 97.184789,31.8971612 98.3393025,31.8971612 C98.6508379,31.8971612 98.9165592,31.9426888 99.0998154,31.9973219 L99.0998154,34.3374397 C98.879908,34.2463846 98.5133958,34.182646 98.128558,34.182646 C96.809114,34.182646 96.0394384,34.9839314 96.0394384,36.3588645 L96.0394384,41.8130691 L93.3638992,41.8130691 Z M100.190189,41.8130691 L100.190189,32.051955 L102.7741,32.051955 L102.7741,33.8093198 L102.829077,33.8093198 C103.177264,32.5709695 104.011079,31.8971612 105.165592,31.8971612 C105.477128,31.8971612 105.742849,31.9426888 105.926105,31.9973219 L105.926105,34.3374397 C105.706198,34.2463846 105.339686,34.182646 104.954848,34.182646 C103.635404,34.182646 102.865728,34.9839314 102.865728,36.3588645 L102.865728,41.8130691 L100.190189,41.8130691 Z M113.201373,38.8264596 L115.657004,38.8264596 C115.363795,40.7386181 113.604536,42.022496 111.176393,42.022496 C108.152667,42.022496 106.338432,40.1012319 106.338432,36.9780396 C106.338432,33.8639529 108.170993,31.8425281 111.075602,31.8425281 C113.934397,31.8425281 115.73947,33.7637922 115.73947,36.7321907 L115.73947,37.5425817 L108.968157,37.5425817 L108.968157,37.706481 C108.968157,39.0996251 109.856949,40.0557043 111.222207,40.0557043 C112.202627,40.0557043 112.953977,39.5731119 113.201373,38.8264596 Z M111.10309,33.8093198 C109.930251,33.8093198 109.087273,34.6925549 108.995645,35.9126942 L113.164721,35.9126942 C113.109745,34.6652384 112.294255,33.8093198 111.10309,33.8093198 Z M117.113891,41.8130691 L117.113891,32.051955 L119.697802,32.051955 L119.697802,33.7911087 L119.752778,33.7911087 C120.275058,32.580075 121.310455,31.8698447 122.822318,31.8698447 C125.003066,31.8698447 126.230882,33.2356722 126.230882,35.5211569 L126.230882,41.8130691 L123.555343,41.8130691 L123.555343,36.0765935 C123.555343,34.8018211 122.950597,34.0733798 121.75027,34.0733798 C120.549943,34.0733798 119.78943,34.9475094 119.78943,36.2131762 L119.78943,41.8130691 L117.113891,41.8130691 Z M128.6407,29.8028923 L131.316239,29.8028923 L131.316239,32.051955 L133.130474,32.051955 L133.130474,34.0551687 L131.316239,34.0551687 L131.316239,38.7262989 C131.316239,39.4729513 131.682751,39.8280664 132.470752,39.8280664 C132.708985,39.8280664 132.956381,39.8098554 133.121311,39.7825388 L133.121311,41.740225 C132.846427,41.8039636 132.388287,41.8494912 131.847681,41.8494912 C129.538654,41.8494912 128.6407,41.0846277 128.6407,39.1815747 L128.6407,34.0551687 L127.257116,34.0551687 L127.257116,32.051955 L128.6407,32.051955 L128.6407,29.8028923 Z M144.501516,28.4461703 C148.414033,28.4461703 150.878828,31.0594537 150.878828,35.2479914 C150.878828,39.4274237 148.414033,42.0316015 144.501516,42.0316015 C140.579835,42.0316015 138.124203,39.4274237 138.124203,35.2479914 C138.124203,31.0594537 140.579835,28.4461703 144.501516,28.4461703 Z M144.501516,30.7407606 C142.339093,30.7407606 140.946347,32.4890198 140.946347,35.2479914 C140.946347,37.9978575 142.329931,39.7370112 144.501516,39.7370112 C146.663938,39.7370112 148.047521,37.9978575 148.047521,35.2479914 C148.047521,32.4890198 146.663938,30.7407606 144.501516,30.7407606 Z M161.351914,35.6850562 L158.868794,35.6850562 C158.713027,34.6561328 158.025816,33.9276915 156.926279,33.9276915 C155.606836,33.9276915 154.782183,35.0385645 154.782183,36.9234065 C154.782183,38.8446706 155.606836,39.9373326 156.935442,39.9373326 C158.007491,39.9373326 158.703864,39.2999464 158.868794,38.234601 L161.361077,38.234601 C161.223635,40.5382967 159.491865,42.022496 156.907954,42.022496 C153.948368,42.022496 152.069993,40.1103374 152.069993,36.9234065 C152.069993,33.7911087 153.948368,31.8425281 156.889628,31.8425281 C159.546842,31.8425281 161.232798,33.4724156 161.351914,35.6850562 Z M171.577605,35.6850562 L169.094485,35.6850562 C168.938717,34.6561328 168.251507,33.9276915 167.15197,33.9276915 C165.832526,33.9276915 165.007874,35.0385645 165.007874,36.9234065 C165.007874,38.8446706 165.832526,39.9373326 167.161133,39.9373326 C168.233181,39.9373326 168.929554,39.2999464 169.094485,38.234601 L171.586768,38.234601 C171.449326,40.5382967 169.717556,42.022496 167.133645,42.022496 C164.174058,42.022496 162.295683,40.1103374 162.295683,36.9234065 C162.295683,33.7911087 164.174058,31.8425281 167.115319,31.8425281 C169.772532,31.8425281 171.458489,33.4724156 171.577605,35.6850562 Z M181.949901,32.051955 L181.949901,41.8130691 L179.36599,41.8130691 L179.36599,40.0557043 L179.311013,40.0557043 C178.825384,41.2849491 177.854127,41.9951794 176.369752,41.9951794 C174.243981,41.9951794 172.832909,40.6202464 172.832909,38.3438672 L172.832909,32.051955 L175.508449,32.051955 L175.508449,37.7884306 C175.508449,39.0905196 176.159008,39.7825388 177.34101,39.7825388 C178.532174,39.7825388 179.274362,38.9357258 179.274362,37.6427424 L179.274362,32.051955 L181.949901,32.051955 Z M189.42675,31.8971612 C191.919033,31.8971612 193.449221,33.7820032 193.449221,36.9325121 C193.449221,40.0739154 191.928196,41.9678629 189.472564,41.9678629 C188.043166,41.9678629 186.94363,41.2758436 186.42135,40.1740761 L186.366373,40.1740761 L186.366373,45 L183.690834,45 L183.690834,32.051955 L186.329722,32.051955 L186.329722,33.7546867 L186.384698,33.7546867 C186.916141,32.6073915 188.006515,31.8971612 189.42675,31.8971612 Z M188.528795,39.8280664 C189.866564,39.8280664 190.709543,38.7080878 190.709543,36.9325121 C190.709543,35.1660418 189.866564,34.0278522 188.528795,34.0278522 C187.218514,34.0278522 186.35721,35.1842528 186.35721,36.9325121 C186.35721,38.6989823 187.218514,39.8280664 188.528795,39.8280664 Z M197.737414,41.9678629 C195.868202,41.9678629 194.447967,40.7659347 194.447967,39.0085699 C194.447967,37.2329941 195.822388,36.2040707 198.268857,36.0583824 L200.742814,35.9126942 L200.742814,35.2662025 C200.742814,34.3556508 200.101418,33.8275308 199.093509,33.8275308 C198.094764,33.8275308 197.46253,34.3192287 197.334251,35.0385645 L194.887782,35.0385645 C194.988573,33.144617 196.610389,31.8425281 199.212626,31.8425281 C201.732397,31.8425281 203.372539,33.1355115 203.372539,35.1023032 L203.372539,41.8130691 L200.788628,41.8130691 L200.788628,40.3197643 L200.733652,40.3197643 C200.183883,41.3577933 198.96523,41.9678629 197.737414,41.9678629 Z M198.617044,40.0465988 C199.78072,40.0465988 200.742814,39.2908409 200.742814,38.234601 L200.742814,37.5243706 L198.67202,37.6518479 C197.673275,37.724692 197.105181,38.1708623 197.105181,38.8628816 C197.105181,39.591323 197.709926,40.0465988 198.617044,40.0465988 Z M205.809846,29.8028923 L208.485385,29.8028923 L208.485385,32.051955 L210.29962,32.051955 L210.29962,34.0551687 L208.485385,34.0551687 L208.485385,38.7262989 C208.485385,39.4729513 208.851897,39.8280664 209.639898,39.8280664 C209.878131,39.8280664 210.125527,39.8098554 210.290457,39.7825388 L210.290457,41.740225 C210.015573,41.8039636 209.557433,41.8494912 209.016828,41.8494912 C206.707801,41.8494912 205.809846,41.0846277 205.809846,39.1815747 L205.809846,34.0551687 L204.426262,34.0551687 L204.426262,32.051955 L205.809846,32.051955 L205.809846,29.8028923 Z M213.14009,30.7316551 C212.361251,30.7316551 211.747343,30.1124799 211.747343,29.3658275 C211.747343,28.6100696 212.361251,28 213.14009,28 C213.918928,28 214.532836,28.6100696 214.532836,29.3658275 C214.532836,30.1124799 213.918928,30.7316551 213.14009,30.7316551 Z M211.811483,41.8130691 L211.811483,32.051955 L214.487022,32.051955 L214.487022,41.8130691 L211.811483,41.8130691 Z M220.772707,42.022496 C217.803958,42.022496 215.907257,40.1285485 215.907257,36.9234065 C215.907257,33.7637922 217.831446,31.8425281 220.772707,31.8425281 C223.713967,31.8425281 225.638156,33.7546867 225.638156,36.9234065 C225.638156,40.137654 223.741456,42.022496 220.772707,42.022496 Z M220.772707,39.9919657 C222.082988,39.9919657 222.916803,38.8901982 222.916803,36.9325121 C222.916803,34.993037 222.073825,33.8730584 220.772707,33.8730584 C219.471588,33.8730584 218.619447,34.993037 218.619447,36.9325121 C218.619447,38.8901982 219.453263,39.9919657 220.772707,39.9919657 Z M227.012577,41.8130691 L227.012577,32.051955 L229.596488,32.051955 L229.596488,33.7911087 L229.651465,33.7911087 C230.173745,32.580075 231.209142,31.8698447 232.721005,31.8698447 C234.901752,31.8698447 236.129568,33.2356722 236.129568,35.5211569 L236.129568,41.8130691 L233.454029,41.8130691 L233.454029,36.0765935 C233.454029,34.8018211 232.849284,34.0733798 231.648957,34.0733798 C230.448629,34.0733798 229.688116,34.9475094 229.688116,36.2131762 L229.688116,41.8130691 L227.012577,41.8130691 Z M239.56562,35.4209963 C238.740968,35.4209963 238.090409,34.765399 238.090409,33.955008 C238.090409,33.1355115 238.740968,32.4890198 239.56562,32.4890198 C240.38111,32.4890198 241.040832,33.1355115 241.040832,33.955008 C241.040832,34.765399 240.38111,35.4209963 239.56562,35.4209963 Z M239.56562,41.9223353 C238.740968,41.9223353 238.090409,41.2667381 238.090409,40.4563471 C238.090409,39.6368506 238.740968,38.9903589 239.56562,38.9903589 C240.38111,38.9903589 241.040832,39.6368506 241.040832,40.4563471 C241.040832,41.2667381 240.38111,41.9223353 239.56562,41.9223353 Z M249.745497,41.8130691 L246.97833,41.8130691 L246.97833,28.6738082 L249.745497,28.6738082 L249.745497,41.8130691 Z M251.7155,41.8130691 L251.7155,32.051955 L254.299411,32.051955 L254.299411,33.7911087 L254.354388,33.7911087 C254.876668,32.580075 255.912065,31.8698447 257.423928,31.8698447 C259.604675,31.8698447 260.832491,33.2356722 260.832491,35.5211569 L260.832491,41.8130691 L258.156952,41.8130691 L258.156952,36.0765935 C258.156952,34.8018211 257.552207,34.0733798 256.35188,34.0733798 C255.151552,34.0733798 254.391039,34.9475094 254.391039,36.2131762 L254.391039,41.8130691 L251.7155,41.8130691 Z M263.242309,29.8028923 L265.917848,29.8028923 L265.917848,32.051955 L267.732084,32.051955 L267.732084,34.0551687 L265.917848,34.0551687 L265.917848,38.7262989 C265.917848,39.4729513 266.284361,39.8280664 267.072362,39.8280664 C267.310595,39.8280664 267.55799,39.8098554 267.722921,39.7825388 L267.722921,41.740225 C267.448037,41.8039636 266.989897,41.8494912 266.449291,41.8494912 C264.140264,41.8494912 263.242309,41.0846277 263.242309,39.1815747 L263.242309,34.0551687 L261.858726,34.0551687 L261.858726,32.051955 L263.242309,32.051955 L263.242309,29.8028923 Z M275.566282,38.8264596 L278.021914,38.8264596 C277.728704,40.7386181 275.969446,42.022496 273.541302,42.022496 C270.517577,42.022496 268.703341,40.1012319 268.703341,36.9780396 C268.703341,33.8639529 270.535902,31.8425281 273.440511,31.8425281 C276.299307,31.8425281 278.104379,33.7637922 278.104379,36.7321907 L278.104379,37.5425817 L271.333066,37.5425817 L271.333066,37.706481 C271.333066,39.0996251 272.221858,40.0557043 273.587116,40.0557043 C274.567536,40.0557043 275.318887,39.5731119 275.566282,38.8264596 Z M273.468,33.8093198 C272.295161,33.8093198 271.452183,34.6925549 271.360555,35.9126942 L275.529631,35.9126942 C275.474654,34.6652384 274.659165,33.8093198 273.468,33.8093198 Z M279.4788,41.8130691 L279.4788,32.051955 L282.062711,32.051955 L282.062711,33.8093198 L282.117688,33.8093198 C282.465875,32.5709695 283.29969,31.8971612 284.454203,31.8971612 C284.765739,31.8971612 285.03146,31.9426888 285.214716,31.9973219 L285.214716,34.3374397 C284.994809,34.2463846 284.628297,34.182646 284.243459,34.182646 C282.924015,34.182646 282.154339,34.9839314 282.154339,36.3588645 L282.154339,41.8130691 L279.4788,41.8130691 Z M286.30509,41.8130691 L286.30509,32.051955 L288.889001,32.051955 L288.889001,33.7911087 L288.943978,33.7911087 C289.466258,32.580075 290.501655,31.8698447 292.013518,31.8698447 C294.194265,31.8698447 295.422081,33.2356722 295.422081,35.5211569 L295.422081,41.8130691 L292.746542,41.8130691 L292.746542,36.0765935 C292.746542,34.8018211 292.141797,34.0733798 290.94147,34.0733798 C289.741142,34.0733798 288.980629,34.9475094 288.980629,36.2131762 L288.980629,41.8130691 L286.30509,41.8130691 Z M296.95227,34.9201928 C296.95227,33.0626674 298.564924,31.8425281 301.066369,31.8425281 C303.586141,31.8425281 305.143818,33.126406 305.198795,35.0385645 L302.734,35.0385645 C302.651535,34.2463846 302.055952,33.7091591 301.066369,33.7091591 C300.140926,33.7091591 299.527018,34.1280129 299.527018,34.7745046 C299.527018,35.275308 299.89353,35.6122121 300.883113,35.821639 L302.559907,36.1767542 C304.612375,36.6047134 305.455353,37.4059989 305.455353,38.8355651 C305.455353,40.7568291 303.686932,42.022496 301.157997,42.022496 C298.445807,42.022496 296.878967,40.7659347 296.704874,38.8446706 L299.316274,38.8446706 C299.481204,39.7005892 300.095112,40.155865 301.157997,40.155865 C302.165906,40.155865 302.788977,39.7461168 302.788977,39.1087306 C302.788977,38.5897161 302.449953,38.2983396 301.487858,38.0798072 L299.811065,37.7337975 C297.914364,37.3331548 296.95227,36.386181 296.95227,34.9201928 Z M306.838937,41.8130691 L306.838937,28.6738082 L309.468662,28.6738082 L309.468662,33.7911087 L309.523639,33.7911087 C310.045919,32.561864 311.117967,31.8698447 312.611504,31.8698447 C314.792252,31.8698447 316.038393,33.2720943 316.038393,35.5302625 L316.038393,41.8130691 L313.362854,41.8130691 L313.362854,36.0948045 C313.362854,34.8382432 312.739783,34.0733798 311.52113,34.0733798 C310.256663,34.0733798 309.514476,34.9566149 309.514476,36.2404928 L309.514476,41.8130691 L306.838937,41.8130691 Z M319.117096,30.7316551 C318.338257,30.7316551 317.724349,30.1124799 317.724349,29.3658275 C317.724349,28.6100696 318.338257,28 319.117096,28 C319.895934,28 320.509842,28.6100696 320.509842,29.3658275 C320.509842,30.1124799 319.895934,30.7316551 319.117096,30.7316551 Z M317.788489,41.8130691 L317.788489,32.051955 L320.464028,32.051955 L320.464028,41.8130691 L317.788489,41.8130691 Z M327.977528,31.8971612 C330.469812,31.8971612 332,33.7820032 332,36.9325121 C332,40.0739154 330.478974,41.9678629 328.023343,41.9678629 C326.593945,41.9678629 325.494408,41.2758436 324.972128,40.1740761 L324.917152,40.1740761 L324.917152,45 L322.241612,45 L322.241612,32.051955 L324.8805,32.051955 L324.8805,33.7546867 L324.935477,33.7546867 C325.46692,32.6073915 326.557294,31.8971612 327.977528,31.8971612 Z M327.079574,39.8280664 C328.417343,39.8280664 329.260321,38.7080878 329.260321,36.9325121 C329.260321,35.1660418 328.417343,34.0278522 327.079574,34.0278522 C325.769292,34.0278522 324.907989,35.1842528 324.907989,36.9325121 C324.907989,38.6989823 325.769292,39.8280664 327.079574,39.8280664 Z" id="Current-Occupation:" fill="#FFFFFF"></path>
        <rect id="Rectangle-3" fill="#FF374F" x="134" y="62" width="74" height="13" rx="1.25"></rect>
        <path d="M216.203312,71.8 C213.618552,71.8 212,70.1485255 212,67.4 C212,64.6573727 213.63086,63 216.203312,63 C218.338816,63 219.963522,64.2975871 220.105069,66.202681 L218.295737,66.202681 C218.123419,65.1587131 217.28645,64.4745308 216.203312,64.4745308 C214.800157,64.4745308 213.895491,65.6010724 213.895491,67.3941019 C213.895491,69.2107239 214.787848,70.3313673 216.209466,70.3313673 C217.311066,70.3313673 218.104957,69.7120643 218.301891,68.7034853 L220.111223,68.7034853 C219.901981,70.602681 218.381895,71.8 216.203312,71.8 Z M224.129909,71.7941019 C222.135952,71.7941019 220.862034,70.5672922 220.862034,68.4911528 C220.862034,66.444504 222.154414,65.2 224.129909,65.2 C226.105404,65.2 227.397784,66.4386059 227.397784,68.4911528 C227.397784,70.5731903 226.123867,71.7941019 224.129909,71.7941019 Z M224.129909,70.4788204 C225.009959,70.4788204 225.56999,69.7651475 225.56999,68.4970509 C225.56999,67.2407507 225.003804,66.5152815 224.129909,66.5152815 C223.256014,66.5152815 222.683675,67.2407507 222.683675,68.4970509 C222.683675,69.7651475 223.243706,70.4788204 224.129909,70.4788204 Z M228.320913,71.658445 L228.320913,65.3356568 L230.056395,65.3356568 L230.056395,66.4798928 L230.09332,66.4798928 C230.370258,65.7190349 231.07799,65.2176944 231.976502,65.2176944 C232.930402,65.2176944 233.595054,65.6895442 233.816605,66.5152815 L233.85353,66.5152815 C234.148931,65.7190349 234.936668,65.2176944 235.902876,65.2176944 C237.195256,65.2176944 238.062997,66.0670241 238.062997,67.3410188 L238.062997,71.658445 L236.265973,71.658445 L236.265973,67.7715818 C236.265973,67.0402145 235.884413,66.6391421 235.18899,66.6391421 C234.505874,66.6391421 234.056619,67.1168901 234.056619,67.8187668 L234.056619,71.658445 L232.327291,71.658445 L232.327291,67.7184987 C232.327291,67.0402145 231.927269,66.6391421 231.262616,66.6391421 C230.579501,66.6391421 230.117937,67.1345845 230.117937,67.8423592 L230.117937,71.658445 L228.320913,71.658445 Z M243.054045,65.2353887 C244.727985,65.2353887 245.755735,66.4563003 245.755735,68.4970509 C245.755735,70.5319035 244.734139,71.7587131 243.084816,71.7587131 C242.124762,71.7587131 241.386259,71.3104558 241.035471,70.5967828 L240.998545,70.5967828 L240.998545,73.7227882 L239.201522,73.7227882 L239.201522,65.3356568 L240.973929,65.3356568 L240.973929,66.4386059 L241.010854,66.4386059 C241.367797,65.6954424 242.100145,65.2353887 243.054045,65.2353887 Z M242.450934,70.3726542 C243.349446,70.3726542 243.915632,69.647185 243.915632,68.4970509 C243.915632,67.352815 243.349446,66.6155496 242.450934,66.6155496 C241.570885,66.6155496 240.992391,67.3646113 240.992391,68.4970509 C240.992391,69.6412869 241.570885,70.3726542 242.450934,70.3726542 Z M248.635896,71.7587131 C247.380441,71.7587131 246.426541,70.9801609 246.426541,69.8418231 C246.426541,68.691689 247.34967,68.0252011 248.992839,67.9308311 L250.65447,67.8364611 L250.65447,67.4176944 C250.65447,66.827882 250.223677,66.4857909 249.546716,66.4857909 C248.875909,66.4857909 248.45127,66.8042895 248.365111,67.2702413 L246.721942,67.2702413 C246.789639,66.0434316 247.87893,65.2 249.62672,65.2 C251.319123,65.2 252.420723,66.0375335 252.420723,67.3115282 L252.420723,71.658445 L250.685241,71.658445 L250.685241,70.6911528 L250.648316,70.6911528 C250.279065,71.3635389 249.460557,71.7587131 248.635896,71.7587131 Z M249.226698,70.5142091 C250.00828,70.5142091 250.65447,70.0246649 250.65447,69.3404826 L250.65447,68.880429 L249.263623,68.9630027 C248.592816,69.0101877 248.211257,69.2991957 248.211257,69.7474531 C248.211257,70.2193029 248.617433,70.5142091 249.226698,70.5142091 Z M253.577711,71.658445 L253.577711,65.3356568 L255.313192,65.3356568 L255.313192,66.4621984 L255.350117,66.4621984 C255.700906,65.677748 256.39633,65.2176944 257.411771,65.2176944 C258.876469,65.2176944 259.70113,66.1024129 259.70113,67.5828418 L259.70113,71.658445 L257.904107,71.658445 L257.904107,67.9426273 C257.904107,67.1168901 257.49793,66.6450402 256.691731,66.6450402 C255.885532,66.6450402 255.374734,67.2112601 255.374734,68.0310992 L255.374734,71.658445 L253.577711,71.658445 Z M261.658163,74 C261.590467,74 261.036589,73.9941019 260.975048,73.9823056 L260.975048,72.6493298 C261.036589,72.661126 261.362762,72.6670241 261.430458,72.6670241 C262.082802,72.6670241 262.408974,72.4664879 262.532058,71.9651475 C262.532058,71.9356568 262.599754,71.6879357 262.5936,71.658445 L260.298087,65.3356568 L262.267428,65.3356568 L263.670583,70.2782842 L263.707508,70.2782842 L265.104509,65.3356568 L267,65.3356568 L264.729104,71.7941019 C264.169072,73.4160858 263.338257,74 261.658163,74 Z" id="Company" fill="#FFFFFF"></path>
        <path d="M137.853736,71.8090186 L136,71.8090186 L136,63.1969496 L141.800596,63.1969496 L141.800596,64.6830239 L137.853736,64.6830239 L137.853736,66.9927056 L141.456857,66.9927056 L141.456857,68.4190981 L137.853736,68.4190981 L137.853736,71.8090186 Z M145.575588,71.9462865 C143.586812,71.9462865 142.316205,70.7049072 142.316205,68.6041114 C142.316205,66.5331565 143.605226,65.2738727 145.575588,65.2738727 C147.545949,65.2738727 148.83497,66.5271883 148.83497,68.6041114 C148.83497,70.7108753 147.564363,71.9462865 145.575588,71.9462865 Z M145.575588,70.6153846 C146.45335,70.6153846 147.011926,69.8932361 147.011926,68.6100796 C147.011926,67.3388594 146.447212,66.6047745 145.575588,66.6047745 C144.703964,66.6047745 144.133111,67.3388594 144.133111,68.6100796 C144.133111,69.8932361 144.691687,70.6153846 145.575588,70.6153846 Z M149.7557,71.8090186 L149.7557,65.4111406 L151.486671,65.4111406 L151.486671,66.5629973 L151.523501,66.5629973 C151.756752,65.7513263 152.315328,65.3096817 153.088741,65.3096817 C153.297439,65.3096817 153.475447,65.3395225 153.598211,65.3753316 L153.598211,66.9091512 C153.450894,66.8494695 153.205367,66.8076923 152.947562,66.8076923 C152.063662,66.8076923 151.548053,67.3328912 151.548053,68.2340849 L151.548053,71.8090186 L149.7557,71.8090186 Z M154.807436,63.9370027 L156.59979,63.9370027 L156.59979,65.4111406 L157.815153,65.4111406 L157.815153,66.7241379 L156.59979,66.7241379 L156.59979,69.785809 C156.59979,70.2751989 156.845317,70.5079576 157.373202,70.5079576 C157.532796,70.5079576 157.698527,70.4960212 157.809014,70.4781167 L157.809014,71.7612732 C157.624868,71.8030504 157.317959,71.8328912 156.955805,71.8328912 C155.408979,71.8328912 154.807436,71.331565 154.807436,70.0842175 L154.807436,66.7241379 L153.880568,66.7241379 L153.880568,65.4111406 L154.807436,65.4111406 L154.807436,63.9370027 Z M164.874079,65.4111406 L164.874079,71.8090186 L163.143108,71.8090186 L163.143108,70.6571618 L163.106278,70.6571618 C162.780954,71.4628647 162.130305,71.928382 161.135917,71.928382 C159.711855,71.928382 158.766573,71.0271883 158.766573,69.5351459 L158.766573,65.4111406 L160.558927,65.4111406 L160.558927,69.1710875 C160.558927,70.0245358 160.994739,70.4781167 161.786566,70.4781167 C162.584532,70.4781167 163.081726,69.9230769 163.081726,69.0755968 L163.081726,65.4111406 L164.874079,65.4111406 Z M166.040337,71.8090186 L166.040337,65.4111406 L167.771308,65.4111406 L167.771308,66.551061 L167.808137,66.551061 C168.158015,65.7572944 168.851631,65.2917772 169.864434,65.2917772 C171.325324,65.2917772 172.147843,66.1870027 172.147843,67.6850133 L172.147843,71.8090186 L170.355489,71.8090186 L170.355489,68.0490716 C170.355489,67.2135279 169.950368,66.7360743 169.146264,66.7360743 C168.342161,66.7360743 167.83269,67.3090186 167.83269,68.1385942 L167.83269,71.8090186 L166.040337,71.8090186 Z M177.641529,69.8514589 L179.286566,69.8514589 C179.090144,71.1047745 177.91161,71.9462865 176.284988,71.9462865 C174.259383,71.9462865 173.04402,70.6870027 173.04402,68.6399204 C173.04402,66.5988064 174.271659,65.2738727 176.217468,65.2738727 C178.132585,65.2738727 179.34181,66.5331565 179.34181,68.4787798 L179.34181,69.0099469 L174.805682,69.0099469 L174.805682,69.117374 C174.805682,70.030504 175.401087,70.6571618 176.315679,70.6571618 C176.972466,70.6571618 177.475798,70.3408488 177.641529,69.8514589 Z M176.235882,66.5629973 C175.450193,66.5629973 174.885479,67.1419098 174.824097,67.9416446 L177.616976,67.9416446 C177.580147,67.1240053 177.033848,66.5629973 176.235882,66.5629973 Z M186.192038,72 C184.295335,72 182.920379,70.9018568 182.871273,69.3381963 L184.58383,69.3381963 C184.68818,70.0842175 185.344967,70.5736074 186.198176,70.5736074 C187.174149,70.5736074 187.849351,69.9230769 187.849351,68.9860743 C187.849351,68.061008 187.174149,67.4104775 186.204314,67.4104775 C185.492283,67.4104775 184.939846,67.7327586 184.639074,68.2519894 L183.024728,68.2519894 L183.429849,63.1969496 L189.083129,63.1969496 L189.083129,64.6293103 L184.903016,64.6293103 L184.68818,67.0523873 L184.725009,67.0523873 C185.093301,66.4734748 185.823746,66.1213528 186.719923,66.1213528 C188.407927,66.1213528 189.617152,67.3030504 189.617152,68.9442971 C189.617152,70.7645889 188.223781,72 186.192038,72 Z M194.147141,72 C191.900561,72 190.531743,70.2751989 190.531743,67.4880637 C190.531743,64.7068966 191.912838,63 194.147141,63 C196.381445,63 197.756401,64.7009284 197.756401,67.4820955 C197.756401,70.2632626 196.393722,72 194.147141,72 Z M194.147141,70.5557029 C195.23974,70.5557029 195.871975,69.4635279 195.871975,67.4880637 C195.871975,65.5245358 195.233602,64.4442971 194.147141,64.4442971 C193.066819,64.4442971 192.41617,65.530504 192.41617,67.4880637 C192.41617,69.4635279 193.054542,70.5557029 194.147141,70.5557029 Z M202.39074,72 C200.14416,72 198.775342,70.2751989 198.775342,67.4880637 C198.775342,64.7068966 200.156436,63 202.39074,63 C204.625044,63 206,64.7009284 206,67.4820955 C206,70.2632626 204.63732,72 202.39074,72 Z M202.39074,70.5557029 C203.483339,70.5557029 204.115573,69.4635279 204.115573,67.4880637 C204.115573,65.5245358 203.477201,64.4442971 202.39074,64.4442971 C201.310417,64.4442971 200.659769,65.530504 200.659769,67.4880637 C200.659769,69.4635279 201.298141,70.5557029 202.39074,70.5557029 Z" id="Fortune-500" fill="#150F30"></path>
    </g>
</svg>