<?xml version="1.0" encoding="UTF-8"?>
<svg width="400px" height="100px" viewBox="0 0 400 100" version="1.1" xmlns="http://www.w3.org/2000/svg" xmlns:xlink="http://www.w3.org/1999/xlink">
    <!-- Generator: Sketch 51.3 (57544) - http://www.bohemiancoding.com/sketch -->
    <title>Artboard</title>
    <desc>Created with Sketch.</desc>
    <defs></defs>
    <g id="Artboard" stroke="none" stroke-width="1" fill="none" fill-rule="evenodd">
        <rect fill="#150F30" x="0" y="0" width="400" height="100"></rect>
        <path d="M201.369141,50.2216797 L196.945312,50.2216797 L196.945312,41.3154297 L187.423828,41.3154297 L187.423828,50.2216797 L183,50.2216797 L183,29.0839844 L187.423828,29.0839844 L187.423828,37.6679688 L196.945312,37.6679688 L196.945312,29.0839844 L201.369141,29.0839844 L201.369141,50.2216797 Z M206.71582,32.3945312 C205.470703,32.3945312 204.489258,31.3984375 204.489258,30.1972656 C204.489258,28.9814453 205.470703,28 206.71582,28 C207.960938,28 208.942383,28.9814453 208.942383,30.1972656 C208.942383,31.3984375 207.960938,32.3945312 206.71582,32.3945312 Z M204.591797,50.2216797 L204.591797,34.5185547 L208.869141,34.5185547 L208.869141,50.2216797 L204.591797,50.2216797 Z M214.494141,50.3974609 C213.175781,50.3974609 212.135742,49.3427734 212.135742,48.0390625 C212.135742,46.7207031 213.175781,45.6806641 214.494141,45.6806641 C215.797852,45.6806641 216.852539,46.7207031 216.852539,48.0390625 C216.852539,49.3427734 215.797852,50.3974609 214.494141,50.3974609 Z" id="Hi." fill="#FFFFFF"></path>
        <path d="M68.3105469,70 L66.0986328,70 L66.0986328,61.2548828 L63.0444336,61.2548828 L63.0444336,59.4311523 L71.3720703,59.4311523 L71.3720703,61.2548828 L68.3105469,61.2548828 L68.3105469,70 Z M72.9467773,70.1245117 C71.4526367,70.1245117 70.3173828,69.1577148 70.3173828,67.7441406 C70.3173828,66.315918 71.4160156,65.4882812 73.371582,65.3710938 L75.3491211,65.2539062 L75.3491211,64.7338867 C75.3491211,64.0014648 74.8364258,63.5766602 74.0307617,63.5766602 C73.2324219,63.5766602 72.7270508,63.972168 72.6245117,64.5507812 L70.6689453,64.5507812 C70.7495117,63.0273438 72.0458984,61.9799805 74.1259766,61.9799805 C76.1401367,61.9799805 77.4511719,63.0200195 77.4511719,64.6020508 L77.4511719,70 L75.3857422,70 L75.3857422,68.7988281 L75.3417969,68.7988281 C74.9023438,69.6337891 73.9282227,70.1245117 72.9467773,70.1245117 Z M73.6499023,68.5791016 C74.5800781,68.5791016 75.3491211,67.9711914 75.3491211,67.121582 L75.3491211,66.550293 L73.6938477,66.652832 C72.8955078,66.7114258 72.4414062,67.0703125 72.4414062,67.6269531 C72.4414062,68.2128906 72.9248047,68.5791016 73.6499023,68.5791016 Z M81.0473633,65.2978516 L83.7133789,62.1484375 L86.1376953,62.1484375 L83.1420898,65.5175781 L86.2841797,70 L83.8232422,70 L81.574707,66.8066406 L81.0180664,67.4072266 L81.0180664,70 L78.8793945,70 L78.8793945,59.4311523 L81.0180664,59.4311523 L81.0180664,65.2978516 L81.0473633,65.2978516 Z M91.7333984,67.5976562 L93.6962891,67.5976562 C93.4619141,69.1357422 92.0556641,70.168457 90.1147461,70.168457 C87.6977539,70.168457 86.2475586,68.6230469 86.2475586,66.1108398 C86.2475586,63.605957 87.7124023,61.9799805 90.0341797,61.9799805 C92.3193359,61.9799805 93.762207,63.5253906 93.762207,65.9130859 L93.762207,66.5649414 L88.3496094,66.5649414 L88.3496094,66.6967773 C88.3496094,67.8173828 89.0600586,68.5864258 90.1513672,68.5864258 C90.9350586,68.5864258 91.5356445,68.1982422 91.7333984,67.5976562 Z M90.0561523,63.5620117 C89.1186523,63.5620117 88.4448242,64.2724609 88.371582,65.2539062 L91.7041016,65.2539062 C91.6601562,64.2504883 91.0083008,63.5620117 90.0561523,63.5620117 Z M100.15625,70.1245117 C98.6621094,70.1245117 97.5268555,69.1577148 97.5268555,67.7441406 C97.5268555,66.315918 98.6254883,65.4882812 100.581055,65.3710938 L102.558594,65.2539062 L102.558594,64.7338867 C102.558594,64.0014648 102.045898,63.5766602 101.240234,63.5766602 C100.441895,63.5766602 99.9365234,63.972168 99.8339844,64.5507812 L97.878418,64.5507812 C97.9589844,63.0273438 99.2553711,61.9799805 101.335449,61.9799805 C103.349609,61.9799805 104.660645,63.0200195 104.660645,64.6020508 L104.660645,70 L102.595215,70 L102.595215,68.7988281 L102.55127,68.7988281 C102.111816,69.6337891 101.137695,70.1245117 100.15625,70.1245117 Z M100.859375,68.5791016 C101.789551,68.5791016 102.558594,67.9711914 102.558594,67.121582 L102.558594,66.550293 L100.90332,66.652832 C100.10498,66.7114258 99.6508789,67.0703125 99.6508789,67.6269531 C99.6508789,68.2128906 100.134277,68.5791016 100.859375,68.5791016 Z M113.588867,62.0239258 C115.581055,62.0239258 116.804199,63.5400391 116.804199,66.0742188 C116.804199,68.6010742 115.588379,70.1245117 113.625488,70.1245117 C112.48291,70.1245117 111.604004,69.5678711 111.186523,68.6816406 L111.142578,68.6816406 L111.142578,72.5634766 L109.003906,72.5634766 L109.003906,62.1484375 L111.113281,62.1484375 L111.113281,63.5180664 L111.157227,63.5180664 C111.582031,62.5952148 112.453613,62.0239258 113.588867,62.0239258 Z M112.871094,68.4033203 C113.94043,68.4033203 114.614258,67.5024414 114.614258,66.0742188 C114.614258,64.6533203 113.94043,63.737793 112.871094,63.737793 C111.82373,63.737793 111.135254,64.6679688 111.135254,66.0742188 C111.135254,67.4951172 111.82373,68.4033203 112.871094,68.4033203 Z M123.103027,67.5976562 L125.065918,67.5976562 C124.831543,69.1357422 123.425293,70.168457 121.484375,70.168457 C119.067383,70.168457 117.617188,68.6230469 117.617188,66.1108398 C117.617188,63.605957 119.082031,61.9799805 121.403809,61.9799805 C123.688965,61.9799805 125.131836,63.5253906 125.131836,65.9130859 L125.131836,66.5649414 L119.719238,66.5649414 L119.719238,66.6967773 C119.719238,67.8173828 120.429688,68.5864258 121.520996,68.5864258 C122.304688,68.5864258 122.905273,68.1982422 123.103027,67.5976562 Z M121.425781,63.5620117 C120.488281,63.5620117 119.814453,64.2724609 119.741211,65.2539062 L123.07373,65.2539062 C123.029785,64.2504883 122.37793,63.5620117 121.425781,63.5620117 Z M131.430664,67.5976562 L133.393555,67.5976562 C133.15918,69.1357422 131.75293,70.168457 129.812012,70.168457 C127.39502,70.168457 125.944824,68.6230469 125.944824,66.1108398 C125.944824,63.605957 127.409668,61.9799805 129.731445,61.9799805 C132.016602,61.9799805 133.459473,63.5253906 133.459473,65.9130859 L133.459473,66.5649414 L128.046875,66.5649414 L128.046875,66.6967773 C128.046875,67.8173828 128.757324,68.5864258 129.848633,68.5864258 C130.632324,68.5864258 131.23291,68.1982422 131.430664,67.5976562 Z M129.753418,63.5620117 C128.815918,63.5620117 128.14209,64.2724609 128.068848,65.2539062 L131.401367,65.2539062 C131.357422,64.2504883 130.705566,63.5620117 129.753418,63.5620117 Z M136.777344,65.2978516 L139.443359,62.1484375 L141.867676,62.1484375 L138.87207,65.5175781 L142.01416,70 L139.553223,70 L137.304688,66.8066406 L136.748047,67.4072266 L136.748047,70 L134.609375,70 L134.609375,59.4311523 L136.748047,59.4311523 L136.748047,65.2978516 L136.777344,65.2978516 Z M147.924805,70.1245117 C146.430664,70.1245117 145.29541,69.1577148 145.29541,67.7441406 C145.29541,66.315918 146.394043,65.4882812 148.349609,65.3710938 L150.327148,65.2539062 L150.327148,64.7338867 C150.327148,64.0014648 149.814453,63.5766602 149.008789,63.5766602 C148.210449,63.5766602 147.705078,63.972168 147.602539,64.5507812 L145.646973,64.5507812 C145.727539,63.0273438 147.023926,61.9799805 149.104004,61.9799805 C151.118164,61.9799805 152.429199,63.0200195 152.429199,64.6020508 L152.429199,70 L150.36377,70 L150.36377,68.7988281 L150.319824,68.7988281 C149.880371,69.6337891 148.90625,70.1245117 147.924805,70.1245117 Z M148.62793,68.5791016 C149.558105,68.5791016 150.327148,67.9711914 150.327148,67.121582 L150.327148,66.550293 L148.671875,66.652832 C147.873535,66.7114258 147.419434,67.0703125 147.419434,67.6269531 C147.419434,68.2128906 147.902832,68.5791016 148.62793,68.5791016 Z M154.377441,60.3393555 L156.516113,60.3393555 L156.516113,62.1484375 L157.966309,62.1484375 L157.966309,63.7597656 L156.516113,63.7597656 L156.516113,67.5170898 C156.516113,68.1176758 156.809082,68.4033203 157.438965,68.4033203 C157.629395,68.4033203 157.827148,68.3886719 157.958984,68.3666992 L157.958984,69.9414062 C157.739258,69.9926758 157.373047,70.0292969 156.940918,70.0292969 C155.095215,70.0292969 154.377441,69.4140625 154.377441,67.8833008 L154.377441,63.7597656 L153.271484,63.7597656 L153.271484,62.1484375 L154.377441,62.1484375 L154.377441,60.3393555 Z M162.104492,70 L162.104492,62.1484375 L164.169922,62.1484375 L164.169922,63.5693359 L164.213867,63.5693359 C164.543457,62.6245117 165.385742,62.0019531 166.455078,62.0019531 C167.590332,62.0019531 168.381348,62.5878906 168.64502,63.6132812 L168.688965,63.6132812 C169.040527,62.6245117 169.978027,62.0019531 171.12793,62.0019531 C172.666016,62.0019531 173.69873,63.0566406 173.69873,64.6386719 L173.69873,70 L171.560059,70 L171.560059,65.1733398 C171.560059,64.2651367 171.105957,63.7670898 170.27832,63.7670898 C169.465332,63.7670898 168.930664,64.3603516 168.930664,65.2319336 L168.930664,70 L166.872559,70 L166.872559,65.1074219 C166.872559,64.2651367 166.396484,63.7670898 165.605469,63.7670898 C164.79248,63.7670898 164.243164,64.3823242 164.243164,65.2612305 L164.243164,70 L162.104492,70 Z M176.027832,72.9077148 C175.947266,72.9077148 175.288086,72.9003906 175.214844,72.8857422 L175.214844,71.2304688 C175.288086,71.2451172 175.67627,71.2524414 175.756836,71.2524414 C176.533203,71.2524414 176.921387,71.003418 177.067871,70.3808594 C177.067871,70.3442383 177.148438,70.0366211 177.141113,70 L174.40918,62.1484375 L176.75293,62.1484375 L178.422852,68.2861328 L178.466797,68.2861328 L180.129395,62.1484375 L182.385254,62.1484375 L179.682617,70.168457 C179.016113,72.1826172 178.027344,72.9077148 176.027832,72.9077148 Z M191.086426,59.2480469 C194.213867,59.2480469 196.184082,61.3500977 196.184082,64.7192383 C196.184082,68.0810547 194.213867,70.1757812 191.086426,70.1757812 C187.95166,70.1757812 185.98877,68.0810547 185.98877,64.7192383 C185.98877,61.3500977 187.95166,59.2480469 191.086426,59.2480469 Z M191.086426,61.09375 C189.35791,61.09375 188.244629,62.5 188.244629,64.7192383 C188.244629,66.9311523 189.350586,68.3300781 191.086426,68.3300781 C192.814941,68.3300781 193.920898,66.9311523 193.920898,64.7192383 C193.920898,62.5 192.814941,61.09375 191.086426,61.09375 Z M202.006836,62.0239258 C203.999023,62.0239258 205.222168,63.5400391 205.222168,66.0742188 C205.222168,68.6010742 204.006348,70.1245117 202.043457,70.1245117 C200.900879,70.1245117 200.021973,69.5678711 199.604492,68.6816406 L199.560547,68.6816406 L199.560547,72.5634766 L197.421875,72.5634766 L197.421875,62.1484375 L199.53125,62.1484375 L199.53125,63.5180664 L199.575195,63.5180664 C200,62.5952148 200.871582,62.0239258 202.006836,62.0239258 Z M201.289062,68.4033203 C202.358398,68.4033203 203.032227,67.5024414 203.032227,66.0742188 C203.032227,64.6533203 202.358398,63.737793 201.289062,63.737793 C200.241699,63.737793 199.553223,64.6679688 199.553223,66.0742188 C199.553223,67.4951172 200.241699,68.4033203 201.289062,68.4033203 Z M211.520996,67.5976562 L213.483887,67.5976562 C213.249512,69.1357422 211.843262,70.168457 209.902344,70.168457 C207.485352,70.168457 206.035156,68.6230469 206.035156,66.1108398 C206.035156,63.605957 207.5,61.9799805 209.821777,61.9799805 C212.106934,61.9799805 213.549805,63.5253906 213.549805,65.9130859 L213.549805,66.5649414 L208.137207,66.5649414 L208.137207,66.6967773 C208.137207,67.8173828 208.847656,68.5864258 209.938965,68.5864258 C210.722656,68.5864258 211.323242,68.1982422 211.520996,67.5976562 Z M209.84375,63.5620117 C208.90625,63.5620117 208.232422,64.2724609 208.15918,65.2539062 L211.491699,65.2539062 C211.447754,64.2504883 210.795898,63.5620117 209.84375,63.5620117 Z M214.648438,70 L214.648438,62.1484375 L216.713867,62.1484375 L216.713867,63.5473633 L216.757812,63.5473633 C217.175293,62.5732422 218.00293,62.0019531 219.211426,62.0019531 C220.95459,62.0019531 221.936035,63.1005859 221.936035,64.9389648 L221.936035,70 L219.797363,70 L219.797363,65.3857422 C219.797363,64.3603516 219.313965,63.7744141 218.354492,63.7744141 C217.39502,63.7744141 216.787109,64.4775391 216.787109,65.4956055 L216.787109,70 L214.648438,70 Z M226.037598,66.9824219 L228.125,66.9824219 C228.26416,67.8686523 229.157715,68.3959961 230.358887,68.3959961 C231.538086,68.3959961 232.34375,67.824707 232.34375,67.0483398 C232.34375,66.3525391 231.845703,65.9570312 230.52002,65.6860352 L229.406738,65.4663086 C227.297363,65.0488281 226.264648,64.0380859 226.264648,62.4633789 C226.264648,60.5297852 227.949219,59.2480469 230.300293,59.2480469 C232.768555,59.2480469 234.321289,60.5371094 234.35791,62.4780273 L232.270508,62.4780273 C232.197266,61.5771484 231.413574,61.0351562 230.300293,61.0351562 C229.208984,61.0351562 228.476562,61.5478516 228.476562,62.3242188 C228.476562,62.9760742 228.989258,63.3789062 230.234375,63.6279297 L231.35498,63.8549805 C233.588867,64.3017578 234.562988,65.2026367 234.562988,66.8066406 C234.562988,68.8720703 232.944336,70.1757812 230.300293,70.1757812 C227.780762,70.1757812 226.103516,68.9746094 226.037598,66.9824219 Z M239.331055,70.168457 C236.958008,70.168457 235.441895,68.6450195 235.441895,66.0668945 C235.441895,63.5253906 236.97998,61.9799805 239.331055,61.9799805 C241.682129,61.9799805 243.220215,63.5180664 243.220215,66.0668945 C243.220215,68.6523438 241.704102,70.168457 239.331055,70.168457 Z M239.331055,68.5351562 C240.378418,68.5351562 241.044922,67.6489258 241.044922,66.0742188 C241.044922,64.5141602 240.371094,63.6132812 239.331055,63.6132812 C238.291016,63.6132812 237.609863,64.5141602 237.609863,66.0742188 C237.609863,67.6489258 238.276367,68.5351562 239.331055,68.5351562 Z M251.569824,62.1484375 L251.569824,70 L249.504395,70 L249.504395,68.5864258 L249.460449,68.5864258 C249.072266,69.5751953 248.295898,70.1464844 247.109375,70.1464844 C245.410156,70.1464844 244.282227,69.0405273 244.282227,67.2094727 L244.282227,62.1484375 L246.420898,62.1484375 L246.420898,66.7626953 C246.420898,67.8100586 246.940918,68.3666992 247.885742,68.3666992 C248.837891,68.3666992 249.431152,67.6855469 249.431152,66.6455078 L249.431152,62.1484375 L251.569824,62.1484375 Z M252.961426,70 L252.961426,62.1484375 L255.026855,62.1484375 L255.026855,63.5620117 L255.070801,63.5620117 C255.349121,62.565918 256.015625,62.0239258 256.938477,62.0239258 C257.1875,62.0239258 257.399902,62.0605469 257.546387,62.1044922 L257.546387,63.9868164 C257.370605,63.9135742 257.077637,63.8623047 256.77002,63.8623047 C255.715332,63.8623047 255.100098,64.5068359 255.100098,65.612793 L255.100098,70 L252.961426,70 Z M265.29541,65.0708008 L263.310547,65.0708008 C263.186035,64.2431641 262.636719,63.6572266 261.757812,63.6572266 C260.703125,63.6572266 260.043945,64.5507812 260.043945,66.0668945 C260.043945,67.6123047 260.703125,68.4912109 261.765137,68.4912109 C262.62207,68.4912109 263.178711,67.9785156 263.310547,67.121582 L265.302734,67.121582 C265.192871,68.9746094 263.808594,70.168457 261.743164,70.168457 C259.377441,70.168457 257.875977,68.6303711 257.875977,66.0668945 C257.875977,63.5473633 259.377441,61.9799805 261.728516,61.9799805 C263.852539,61.9799805 265.200195,63.2910156 265.29541,65.0708008 Z M271.535645,67.5976562 L273.498535,67.5976562 C273.26416,69.1357422 271.85791,70.168457 269.916992,70.168457 C267.5,70.168457 266.049805,68.6230469 266.049805,66.1108398 C266.049805,63.605957 267.514648,61.9799805 269.836426,61.9799805 C272.121582,61.9799805 273.564453,63.5253906 273.564453,65.9130859 L273.564453,66.5649414 L268.151855,66.5649414 L268.151855,66.6967773 C268.151855,67.8173828 268.862305,68.5864258 269.953613,68.5864258 C270.737305,68.5864258 271.337891,68.1982422 271.535645,67.5976562 Z M269.858398,63.5620117 C268.920898,63.5620117 268.24707,64.2724609 268.173828,65.2539062 L271.506348,65.2539062 C271.462402,64.2504883 270.810547,63.5620117 269.858398,63.5620117 Z M277.8125,59.4311523 L282.111816,59.4311523 C284.279785,59.4311523 285.773926,60.8740234 285.773926,63.0493164 C285.773926,65.2172852 284.228516,66.6674805 282.001953,66.6674805 L280.024414,66.6674805 L280.024414,70 L277.8125,70 L277.8125,59.4311523 Z M280.024414,61.1816406 L280.024414,64.9389648 L281.518555,64.9389648 C282.785645,64.9389648 283.525391,64.2651367 283.525391,63.0566406 C283.525391,61.8554688 282.792969,61.1816406 281.525879,61.1816406 L280.024414,61.1816406 Z M286.894531,70 L286.894531,62.1484375 L288.959961,62.1484375 L288.959961,63.5620117 L289.003906,63.5620117 C289.282227,62.565918 289.94873,62.0239258 290.871582,62.0239258 C291.120605,62.0239258 291.333008,62.0605469 291.479492,62.1044922 L291.479492,63.9868164 C291.303711,63.9135742 291.010742,63.8623047 290.703125,63.8623047 C289.648438,63.8623047 289.033203,64.5068359 289.033203,65.612793 L289.033203,70 L286.894531,70 Z M295.698242,70.168457 C293.325195,70.168457 291.809082,68.6450195 291.809082,66.0668945 C291.809082,63.5253906 293.347168,61.9799805 295.698242,61.9799805 C298.049316,61.9799805 299.587402,63.5180664 299.587402,66.0668945 C299.587402,68.6523438 298.071289,70.168457 295.698242,70.168457 Z M295.698242,68.5351562 C296.745605,68.5351562 297.412109,67.6489258 297.412109,66.0742188 C297.412109,64.5141602 296.738281,63.6132812 295.698242,63.6132812 C294.658203,63.6132812 293.977051,64.5141602 293.977051,66.0742188 C293.977051,67.6489258 294.643555,68.5351562 295.698242,68.5351562 Z M301.777344,61.0864258 C301.162109,61.0864258 300.664062,60.5883789 300.664062,59.987793 C300.664062,59.3798828 301.162109,58.8891602 301.777344,58.8891602 C302.399902,58.8891602 302.890625,59.3798828 302.890625,59.987793 C302.890625,60.5883789 302.399902,61.0864258 301.777344,61.0864258 Z M302.861328,62.1484375 L302.861328,70.3588867 C302.861328,71.9555664 301.887207,72.7832031 300.048828,72.7832031 C299.880371,72.7832031 299.558105,72.7758789 299.462891,72.7612305 L299.462891,71.1865234 C299.51416,71.1938477 299.667969,71.1938477 299.733887,71.1938477 C300.444336,71.1938477 300.722656,70.9448242 300.722656,70.300293 L300.722656,62.1484375 L302.861328,62.1484375 Z M309.482422,67.5976562 L311.445312,67.5976562 C311.210938,69.1357422 309.804688,70.168457 307.86377,70.168457 C305.446777,70.168457 303.996582,68.6230469 303.996582,66.1108398 C303.996582,63.605957 305.461426,61.9799805 307.783203,61.9799805 C310.068359,61.9799805 311.51123,63.5253906 311.51123,65.9130859 L311.51123,66.5649414 L306.098633,66.5649414 L306.098633,66.6967773 C306.098633,67.8173828 306.809082,68.5864258 307.900391,68.5864258 C308.684082,68.5864258 309.284668,68.1982422 309.482422,67.5976562 Z M307.805176,63.5620117 C306.867676,63.5620117 306.193848,64.2724609 306.120605,65.2539062 L309.453125,65.2539062 C309.40918,64.2504883 308.757324,63.5620117 307.805176,63.5620117 Z M319.743652,65.0708008 L317.758789,65.0708008 C317.634277,64.2431641 317.084961,63.6572266 316.206055,63.6572266 C315.151367,63.6572266 314.492188,64.5507812 314.492188,66.0668945 C314.492188,67.6123047 315.151367,68.4912109 316.213379,68.4912109 C317.070312,68.4912109 317.626953,67.9785156 317.758789,67.121582 L319.750977,67.121582 C319.641113,68.9746094 318.256836,70.168457 316.191406,70.168457 C313.825684,70.168457 312.324219,68.6303711 312.324219,66.0668945 C312.324219,63.5473633 313.825684,61.9799805 316.176758,61.9799805 C318.300781,61.9799805 319.648438,63.2910156 319.743652,65.0708008 Z M321.35498,60.3393555 L323.493652,60.3393555 L323.493652,62.1484375 L324.943848,62.1484375 L324.943848,63.7597656 L323.493652,63.7597656 L323.493652,67.5170898 C323.493652,68.1176758 323.786621,68.4033203 324.416504,68.4033203 C324.606934,68.4033203 324.804688,68.3886719 324.936523,68.3666992 L324.936523,69.9414062 C324.716797,69.9926758 324.350586,70.0292969 323.918457,70.0292969 C322.072754,70.0292969 321.35498,69.4140625 321.35498,67.8833008 L321.35498,63.7597656 L320.249023,63.7597656 L320.249023,62.1484375 L321.35498,62.1484375 L321.35498,60.3393555 Z M325.983887,64.4555664 C325.983887,62.9614258 327.272949,61.9799805 329.272461,61.9799805 C331.286621,61.9799805 332.531738,63.0126953 332.575684,64.5507812 L330.605469,64.5507812 C330.539551,63.9135742 330.063477,63.4814453 329.272461,63.4814453 C328.532715,63.4814453 328.041992,63.8183594 328.041992,64.3383789 C328.041992,64.7412109 328.334961,65.012207 329.125977,65.1806641 L330.466309,65.4663086 C332.106934,65.8105469 332.780762,66.4550781 332.780762,67.6049805 C332.780762,69.1503906 331.367188,70.168457 329.345703,70.168457 C327.177734,70.168457 325.925293,69.1577148 325.786133,67.6123047 L327.873535,67.6123047 C328.005371,68.3007812 328.496094,68.6669922 329.345703,68.6669922 C330.151367,68.6669922 330.649414,68.3374023 330.649414,67.824707 C330.649414,67.4072266 330.378418,67.1728516 329.609375,66.9970703 L328.269043,66.71875 C326.75293,66.3964844 325.983887,65.6347656 325.983887,64.4555664 Z M335.227051,70.0878906 C334.567871,70.0878906 334.047852,69.5605469 334.047852,68.9086914 C334.047852,68.2495117 334.567871,67.7294922 335.227051,67.7294922 C335.878906,67.7294922 336.40625,68.2495117 336.40625,68.9086914 C336.40625,69.5605469 335.878906,70.0878906 335.227051,70.0878906 Z" id="Take-a-peek-at-my-Op" fill="#FFFFFF"></path>
    </g>
</svg>