<?xml version="1.0" encoding="UTF-8"?>
<svg width="400px" height="100px" viewBox="0 0 400 100" version="1.1" xmlns="http://www.w3.org/2000/svg" xmlns:xlink="http://www.w3.org/1999/xlink">
    <!-- Generator: Sketch 51.3 (57544) - http://www.bohemiancoding.com/sketch -->
    <title>Artboard</title>
    <desc>Created with Sketch.</desc>
    <defs></defs>
    <g id="Artboard" stroke="none" stroke-width="1" fill="none" fill-rule="evenodd">
        <rect fill="#150F30" x="0" y="0" width="400" height="100"></rect>
        <path d="M123.710938,56 L122.299805,56 L122.299805,48.9541016 L123.530273,48.9541016 L126.821289,53.5439453 L126.860352,53.5439453 L126.860352,48.9541016 L128.271484,48.9541016 L128.271484,56 L127.050781,56 L123.754883,51.3857422 L123.710938,51.3857422 L123.710938,56 Z M132.788086,54.3984375 L134.09668,54.3984375 C133.94043,55.4238281 133.00293,56.1123047 131.708984,56.1123047 C130.097656,56.1123047 129.130859,55.0820312 129.130859,53.4072266 C129.130859,51.7373047 130.107422,50.6533203 131.655273,50.6533203 C133.178711,50.6533203 134.140625,51.6835938 134.140625,53.2753906 L134.140625,53.7099609 L130.532227,53.7099609 L130.532227,53.7978516 C130.532227,54.5449219 131.005859,55.0576172 131.733398,55.0576172 C132.255859,55.0576172 132.65625,54.7988281 132.788086,54.3984375 Z M131.669922,51.7080078 C131.044922,51.7080078 130.595703,52.1816406 130.546875,52.8359375 L132.768555,52.8359375 C132.739258,52.1669922 132.304688,51.7080078 131.669922,51.7080078 Z M135.253906,49.5595703 L136.679688,49.5595703 L136.679688,50.765625 L137.646484,50.765625 L137.646484,51.8398438 L136.679688,51.8398438 L136.679688,54.3447266 C136.679688,54.7451172 136.875,54.9355469 137.294922,54.9355469 C137.421875,54.9355469 137.553711,54.9257812 137.641602,54.9111328 L137.641602,55.9609375 C137.495117,55.9951172 137.250977,56.0195312 136.962891,56.0195312 C135.732422,56.0195312 135.253906,55.609375 135.253906,54.5888672 L135.253906,51.8398438 L134.516602,51.8398438 L134.516602,50.765625 L135.253906,50.765625 L135.253906,49.5595703 Z M145.771484,50.765625 L144.384766,56 L142.866211,56 L141.918945,52.2988281 L141.889648,52.2988281 L140.947266,56 L139.448242,56 L138.056641,50.765625 L139.492188,50.765625 L140.283203,54.6474609 L140.3125,54.6474609 L141.240234,50.765625 L142.607422,50.765625 L143.540039,54.6474609 L143.569336,54.6474609 L144.365234,50.765625 L145.771484,50.765625 Z M148.657227,56.1123047 C147.075195,56.1123047 146.064453,55.0966797 146.064453,53.3779297 C146.064453,51.6835938 147.089844,50.6533203 148.657227,50.6533203 C150.224609,50.6533203 151.25,51.6787109 151.25,53.3779297 C151.25,55.1015625 150.239258,56.1123047 148.657227,56.1123047 Z M148.657227,55.0234375 C149.355469,55.0234375 149.799805,54.4326172 149.799805,53.3828125 C149.799805,52.3427734 149.350586,51.7421875 148.657227,51.7421875 C147.963867,51.7421875 147.509766,52.3427734 147.509766,53.3828125 C147.509766,54.4326172 147.954102,55.0234375 148.657227,55.0234375 Z M151.982422,56 L151.982422,50.765625 L153.359375,50.765625 L153.359375,51.7080078 L153.388672,51.7080078 C153.574219,51.0439453 154.018555,50.6826172 154.633789,50.6826172 C154.799805,50.6826172 154.941406,50.7070312 155.039062,50.7363281 L155.039062,51.9912109 C154.921875,51.9423828 154.726562,51.9082031 154.521484,51.9082031 C153.818359,51.9082031 153.408203,52.3378906 153.408203,53.0751953 L153.408203,56 L151.982422,56 Z M157.099609,52.8652344 L158.876953,50.765625 L160.493164,50.765625 L158.496094,53.0117188 L160.59082,56 L158.950195,56 L157.451172,53.8710938 L157.080078,54.2714844 L157.080078,56 L155.654297,56 L155.654297,48.9541016 L157.080078,48.9541016 L157.080078,52.8652344 L157.099609,52.8652344 Z M167.714844,56 L167.177734,54.2910156 L164.702148,54.2910156 L164.165039,56 L162.651367,56 L165.097656,48.9541016 L166.831055,48.9541016 L169.282227,56 L167.714844,56 Z M165.922852,50.3017578 L165.019531,53.1875 L166.860352,53.1875 L165.957031,50.3017578 L165.922852,50.3017578 Z M174.541016,50.765625 L174.541016,56 L173.164062,56 L173.164062,55.0576172 L173.134766,55.0576172 C172.875977,55.7167969 172.358398,56.0976562 171.567383,56.0976562 C170.43457,56.0976562 169.682617,55.3603516 169.682617,54.1396484 L169.682617,50.765625 L171.108398,50.765625 L171.108398,53.8417969 C171.108398,54.5400391 171.455078,54.9111328 172.084961,54.9111328 C172.719727,54.9111328 173.115234,54.4570312 173.115234,53.7636719 L173.115234,50.765625 L174.541016,50.765625 Z M175.849609,49.5595703 L177.275391,49.5595703 L177.275391,50.765625 L178.242188,50.765625 L178.242188,51.8398438 L177.275391,51.8398438 L177.275391,54.3447266 C177.275391,54.7451172 177.470703,54.9355469 177.890625,54.9355469 C178.017578,54.9355469 178.149414,54.9257812 178.237305,54.9111328 L178.237305,55.9609375 C178.09082,55.9951172 177.84668,56.0195312 177.558594,56.0195312 C176.328125,56.0195312 175.849609,55.609375 175.849609,54.5888672 L175.849609,51.8398438 L175.112305,51.8398438 L175.112305,50.765625 L175.849609,50.765625 L175.849609,49.5595703 Z M181.352539,56.1123047 C179.770508,56.1123047 178.759766,55.0966797 178.759766,53.3779297 C178.759766,51.6835938 179.785156,50.6533203 181.352539,50.6533203 C182.919922,50.6533203 183.945312,51.6787109 183.945312,53.3779297 C183.945312,55.1015625 182.93457,56.1123047 181.352539,56.1123047 Z M181.352539,55.0234375 C182.050781,55.0234375 182.495117,54.4326172 182.495117,53.3828125 C182.495117,52.3427734 182.045898,51.7421875 181.352539,51.7421875 C180.65918,51.7421875 180.205078,52.3427734 180.205078,53.3828125 C180.205078,54.4326172 180.649414,55.0234375 181.352539,55.0234375 Z M184.677734,56 L184.677734,50.765625 L186.054688,50.765625 L186.054688,51.7128906 L186.083984,51.7128906 C186.303711,51.0830078 186.865234,50.6679688 187.578125,50.6679688 C188.334961,50.6679688 188.862305,51.0585938 189.038086,51.7421875 L189.067383,51.7421875 C189.301758,51.0830078 189.926758,50.6679688 190.693359,50.6679688 C191.71875,50.6679688 192.407227,51.3710938 192.407227,52.4257812 L192.407227,56 L190.981445,56 L190.981445,52.7822266 C190.981445,52.1767578 190.678711,51.8447266 190.126953,51.8447266 C189.584961,51.8447266 189.228516,52.2402344 189.228516,52.8212891 L189.228516,56 L187.856445,56 L187.856445,52.7382812 C187.856445,52.1767578 187.539062,51.8447266 187.011719,51.8447266 C186.469727,51.8447266 186.103516,52.2548828 186.103516,52.8408203 L186.103516,56 L184.677734,56 Z M194.863281,56.0830078 C193.867188,56.0830078 193.110352,55.4384766 193.110352,54.4960938 C193.110352,53.5439453 193.842773,52.9921875 195.146484,52.9140625 L196.464844,52.8359375 L196.464844,52.4892578 C196.464844,52.0009766 196.123047,51.7177734 195.585938,51.7177734 C195.053711,51.7177734 194.716797,51.9814453 194.648438,52.3671875 L193.344727,52.3671875 C193.398438,51.3515625 194.262695,50.6533203 195.649414,50.6533203 C196.992188,50.6533203 197.866211,51.3466797 197.866211,52.4013672 L197.866211,56 L196.489258,56 L196.489258,55.1992188 L196.459961,55.1992188 C196.166992,55.7558594 195.517578,56.0830078 194.863281,56.0830078 Z M195.332031,55.0527344 C195.952148,55.0527344 196.464844,54.6474609 196.464844,54.0810547 L196.464844,53.7001953 L195.361328,53.7685547 C194.829102,53.8076172 194.526367,54.046875 194.526367,54.4179688 C194.526367,54.8085938 194.848633,55.0527344 195.332031,55.0527344 Z M199.165039,49.5595703 L200.59082,49.5595703 L200.59082,50.765625 L201.557617,50.765625 L201.557617,51.8398438 L200.59082,51.8398438 L200.59082,54.3447266 C200.59082,54.7451172 200.786133,54.9355469 201.206055,54.9355469 C201.333008,54.9355469 201.464844,54.9257812 201.552734,54.9111328 L201.552734,55.9609375 C201.40625,55.9951172 201.162109,56.0195312 200.874023,56.0195312 C199.643555,56.0195312 199.165039,55.609375 199.165039,54.5888672 L199.165039,51.8398438 L198.427734,51.8398438 L198.427734,50.765625 L199.165039,50.765625 L199.165039,49.5595703 Z M203.071289,50.0576172 C202.65625,50.0576172 202.329102,49.7255859 202.329102,49.3251953 C202.329102,48.9199219 202.65625,48.5927734 203.071289,48.5927734 C203.486328,48.5927734 203.813477,48.9199219 203.813477,49.3251953 C203.813477,49.7255859 203.486328,50.0576172 203.071289,50.0576172 Z M202.363281,56 L202.363281,50.765625 L203.789062,50.765625 L203.789062,56 L202.363281,56 Z M207.138672,56.1123047 C205.556641,56.1123047 204.545898,55.0966797 204.545898,53.3779297 C204.545898,51.6835938 205.571289,50.6533203 207.138672,50.6533203 C208.706055,50.6533203 209.731445,51.6787109 209.731445,53.3779297 C209.731445,55.1015625 208.720703,56.1123047 207.138672,56.1123047 Z M207.138672,55.0234375 C207.836914,55.0234375 208.28125,54.4326172 208.28125,53.3828125 C208.28125,52.3427734 207.832031,51.7421875 207.138672,51.7421875 C206.445312,51.7421875 205.991211,52.3427734 205.991211,53.3828125 C205.991211,54.4326172 206.435547,55.0234375 207.138672,55.0234375 Z M210.463867,56 L210.463867,50.765625 L211.84082,50.765625 L211.84082,51.6982422 L211.870117,51.6982422 C212.148438,51.0488281 212.700195,50.6679688 213.505859,50.6679688 C214.667969,50.6679688 215.322266,51.4003906 215.322266,52.6259766 L215.322266,56 L213.896484,56 L213.896484,52.9238281 C213.896484,52.2402344 213.574219,51.8496094 212.93457,51.8496094 C212.294922,51.8496094 211.889648,52.3183594 211.889648,52.9970703 L211.889648,56 L210.463867,56 Z M219.755859,56.0830078 C218.759766,56.0830078 218.00293,55.4384766 218.00293,54.4960938 C218.00293,53.5439453 218.735352,52.9921875 220.039062,52.9140625 L221.357422,52.8359375 L221.357422,52.4892578 C221.357422,52.0009766 221.015625,51.7177734 220.478516,51.7177734 C219.946289,51.7177734 219.609375,51.9814453 219.541016,52.3671875 L218.237305,52.3671875 C218.291016,51.3515625 219.155273,50.6533203 220.541992,50.6533203 C221.884766,50.6533203 222.758789,51.3466797 222.758789,52.4013672 L222.758789,56 L221.381836,56 L221.381836,55.1992188 L221.352539,55.1992188 C221.05957,55.7558594 220.410156,56.0830078 219.755859,56.0830078 Z M220.224609,55.0527344 C220.844727,55.0527344 221.357422,54.6474609 221.357422,54.0810547 L221.357422,53.7001953 L220.253906,53.7685547 C219.72168,53.8076172 219.418945,54.046875 219.418945,54.4179688 C219.418945,54.8085938 219.741211,55.0527344 220.224609,55.0527344 Z M223.676758,56 L223.676758,50.765625 L225.053711,50.765625 L225.053711,51.6982422 L225.083008,51.6982422 C225.361328,51.0488281 225.913086,50.6679688 226.71875,50.6679688 C227.880859,50.6679688 228.535156,51.4003906 228.535156,52.6259766 L228.535156,56 L227.109375,56 L227.109375,52.9238281 C227.109375,52.2402344 226.787109,51.8496094 226.147461,51.8496094 C225.507812,51.8496094 225.102539,52.3183594 225.102539,52.9970703 L225.102539,56 L223.676758,56 Z M231.381836,56.0830078 C230.073242,56.0830078 229.248047,55.0478516 229.248047,53.3730469 C229.248047,51.7128906 230.078125,50.6826172 231.391602,50.6826172 C232.148438,50.6826172 232.734375,51.0830078 232.988281,51.6640625 L233.017578,51.6640625 L233.017578,48.9541016 L234.443359,48.9541016 L234.443359,56 L233.037109,56 L233.037109,55.1015625 L233.012695,55.1015625 C232.758789,55.6777344 232.15332,56.0830078 231.381836,56.0830078 Z M231.865234,51.8251953 C231.147461,51.8251953 230.708008,52.4257812 230.708008,53.3828125 C230.708008,54.3447266 231.147461,54.9355469 231.865234,54.9355469 C232.573242,54.9355469 233.027344,54.3398438 233.027344,53.3828125 C233.027344,52.4306641 232.573242,51.8251953 231.865234,51.8251953 Z M237.226562,53.9882812 L238.618164,53.9882812 C238.710938,54.5791016 239.306641,54.9306641 240.107422,54.9306641 C240.893555,54.9306641 241.430664,54.5498047 241.430664,54.0322266 C241.430664,53.5683594 241.098633,53.3046875 240.214844,53.1240234 L239.472656,52.9775391 C238.066406,52.6992188 237.37793,52.0253906 237.37793,50.9755859 C237.37793,49.6865234 238.500977,48.8320312 240.068359,48.8320312 C241.713867,48.8320312 242.749023,49.6914062 242.773438,50.9853516 L241.381836,50.9853516 C241.333008,50.3847656 240.810547,50.0234375 240.068359,50.0234375 C239.34082,50.0234375 238.852539,50.3652344 238.852539,50.8828125 C238.852539,51.3173828 239.194336,51.5859375 240.024414,51.7519531 L240.771484,51.9033203 C242.260742,52.2011719 242.910156,52.8017578 242.910156,53.8710938 C242.910156,55.2480469 241.831055,56.1171875 240.068359,56.1171875 C238.388672,56.1171875 237.270508,55.3164062 237.226562,53.9882812 Z M248.442383,52.7138672 L247.119141,52.7138672 C247.036133,52.1621094 246.669922,51.7714844 246.083984,51.7714844 C245.380859,51.7714844 244.941406,52.3671875 244.941406,53.3779297 C244.941406,54.4082031 245.380859,54.9941406 246.088867,54.9941406 C246.660156,54.9941406 247.03125,54.6523438 247.119141,54.0810547 L248.447266,54.0810547 C248.374023,55.3164062 247.451172,56.1123047 246.074219,56.1123047 C244.49707,56.1123047 243.496094,55.0869141 243.496094,53.3779297 C243.496094,51.6982422 244.49707,50.6533203 246.064453,50.6533203 C247.480469,50.6533203 248.378906,51.5273438 248.442383,52.7138672 Z M249.135742,56 L249.135742,50.765625 L250.512695,50.765625 L250.512695,51.7080078 L250.541992,51.7080078 C250.727539,51.0439453 251.171875,50.6826172 251.787109,50.6826172 C251.953125,50.6826172 252.094727,50.7070312 252.192383,50.7363281 L252.192383,51.9912109 C252.075195,51.9423828 251.879883,51.9082031 251.674805,51.9082031 C250.97168,51.9082031 250.561523,52.3378906 250.561523,53.0751953 L250.561523,56 L249.135742,56 Z M253.505859,50.0576172 C253.09082,50.0576172 252.763672,49.7255859 252.763672,49.3251953 C252.763672,48.9199219 253.09082,48.5927734 253.505859,48.5927734 C253.920898,48.5927734 254.248047,48.9199219 254.248047,49.3251953 C254.248047,49.7255859 253.920898,50.0576172 253.505859,50.0576172 Z M252.797852,56 L252.797852,50.765625 L254.223633,50.765625 L254.223633,56 L252.797852,56 Z M258.227539,50.6826172 C259.555664,50.6826172 260.371094,51.6933594 260.371094,53.3828125 C260.371094,55.0673828 259.560547,56.0830078 258.251953,56.0830078 C257.490234,56.0830078 256.904297,55.7119141 256.625977,55.1210938 L256.59668,55.1210938 L256.59668,57.7089844 L255.170898,57.7089844 L255.170898,50.765625 L256.577148,50.765625 L256.577148,51.6787109 L256.606445,51.6787109 C256.889648,51.0634766 257.470703,50.6826172 258.227539,50.6826172 Z M257.749023,54.9355469 C258.461914,54.9355469 258.911133,54.3349609 258.911133,53.3828125 C258.911133,52.4355469 258.461914,51.8251953 257.749023,51.8251953 C257.050781,51.8251953 256.591797,52.4453125 256.591797,53.3828125 C256.591797,54.3300781 257.050781,54.9355469 257.749023,54.9355469 Z M261.484375,49.5595703 L262.910156,49.5595703 L262.910156,50.765625 L263.876953,50.765625 L263.876953,51.8398438 L262.910156,51.8398438 L262.910156,54.3447266 C262.910156,54.7451172 263.105469,54.9355469 263.525391,54.9355469 C263.652344,54.9355469 263.78418,54.9257812 263.87207,54.9111328 L263.87207,55.9609375 C263.725586,55.9951172 263.481445,56.0195312 263.193359,56.0195312 C261.962891,56.0195312 261.484375,55.609375 261.484375,54.5888672 L261.484375,51.8398438 L260.74707,51.8398438 L260.74707,50.765625 L261.484375,50.765625 L261.484375,49.5595703 Z M265.390625,50.0576172 C264.975586,50.0576172 264.648438,49.7255859 264.648438,49.3251953 C264.648438,48.9199219 264.975586,48.5927734 265.390625,48.5927734 C265.805664,48.5927734 266.132812,48.9199219 266.132812,49.3251953 C266.132812,49.7255859 265.805664,50.0576172 265.390625,50.0576172 Z M264.682617,56 L264.682617,50.765625 L266.108398,50.765625 L266.108398,56 L264.682617,56 Z M267.055664,56 L267.055664,50.765625 L268.432617,50.765625 L268.432617,51.6982422 L268.461914,51.6982422 C268.740234,51.0488281 269.291992,50.6679688 270.097656,50.6679688 C271.259766,50.6679688 271.914062,51.4003906 271.914062,52.6259766 L271.914062,56 L270.488281,56 L270.488281,52.9238281 C270.488281,52.2402344 270.166016,51.8496094 269.526367,51.8496094 C268.886719,51.8496094 268.481445,52.3183594 268.481445,52.9970703 L268.481445,56 L267.055664,56 Z M275.209961,57.9726562 C273.833008,57.9726562 272.900391,57.3037109 272.788086,56.3710938 L274.18457,56.3710938 C274.296875,56.7324219 274.707031,56.9765625 275.249023,56.9765625 C275.986328,56.9765625 276.396484,56.5712891 276.396484,55.9658203 L276.396484,55.0478516 L276.367188,55.0478516 C276.123047,55.6044922 275.507812,55.9853516 274.750977,55.9853516 C273.47168,55.9853516 272.626953,54.9990234 272.626953,53.3632812 C272.626953,51.703125 273.447266,50.6826172 274.775391,50.6826172 C275.527344,50.6826172 276.118164,51.078125 276.391602,51.6787109 L276.416016,51.6787109 L276.416016,50.765625 L277.822266,50.765625 L277.822266,55.9267578 C277.822266,57.171875 276.777344,57.9726562 275.209961,57.9726562 Z M275.234375,54.8867188 C275.947266,54.8867188 276.401367,54.3203125 276.401367,53.3730469 C276.401367,52.4306641 275.947266,51.8251953 275.234375,51.8251953 C274.53125,51.8251953 274.086914,52.4208984 274.086914,53.3730469 C274.086914,54.3300781 274.526367,54.8867188 275.234375,54.8867188 Z" id="Network-Automation-a" fill="#FFFFFF"></path>
        <path d="M100.002441,44.2866211 C96.9262695,44.2866211 95,42.2358398 95,38.8227539 C95,35.4169922 96.940918,33.3588867 100.002441,33.3588867 C102.543945,33.3588867 104.477539,34.9702148 104.645996,37.3359375 L102.492676,37.3359375 C102.287598,36.0395508 101.291504,35.1899414 100.002441,35.1899414 C98.3325195,35.1899414 97.2558594,36.5888672 97.2558594,38.8154297 C97.2558594,41.0712891 98.3178711,42.4628906 100.009766,42.4628906 C101.320801,42.4628906 102.265625,41.6938477 102.5,40.4414062 L104.65332,40.4414062 C104.404297,42.7998047 102.595215,44.2866211 100.002441,44.2866211 Z M113.083496,36.2592773 L113.083496,44.1108398 L111.018066,44.1108398 L111.018066,42.6972656 L110.974121,42.6972656 C110.585938,43.6860352 109.80957,44.2573242 108.623047,44.2573242 C106.923828,44.2573242 105.795898,43.1513672 105.795898,41.3203125 L105.795898,36.2592773 L107.93457,36.2592773 L107.93457,40.8735352 C107.93457,41.9208984 108.45459,42.4775391 109.399414,42.4775391 C110.351562,42.4775391 110.944824,41.7963867 110.944824,40.7563477 L110.944824,36.2592773 L113.083496,36.2592773 Z M114.475098,44.1108398 L114.475098,36.2592773 L116.540527,36.2592773 L116.540527,37.6728516 L116.584473,37.6728516 C116.862793,36.6767578 117.529297,36.1347656 118.452148,36.1347656 C118.701172,36.1347656 118.913574,36.1713867 119.060059,36.215332 L119.060059,38.0976562 C118.884277,38.0244141 118.591309,37.9731445 118.283691,37.9731445 C117.229004,37.9731445 116.61377,38.6176758 116.61377,39.7236328 L116.61377,44.1108398 L114.475098,44.1108398 Z M119.931641,44.1108398 L119.931641,36.2592773 L121.99707,36.2592773 L121.99707,37.6728516 L122.041016,37.6728516 C122.319336,36.6767578 122.98584,36.1347656 123.908691,36.1347656 C124.157715,36.1347656 124.370117,36.1713867 124.516602,36.215332 L124.516602,38.0976562 C124.34082,38.0244141 124.047852,37.9731445 123.740234,37.9731445 C122.685547,37.9731445 122.070312,38.6176758 122.070312,39.7236328 L122.070312,44.1108398 L119.931641,44.1108398 Z M130.332031,41.7084961 L132.294922,41.7084961 C132.060547,43.246582 130.654297,44.2792969 128.713379,44.2792969 C126.296387,44.2792969 124.846191,42.7338867 124.846191,40.2216797 C124.846191,37.7167969 126.311035,36.0908203 128.632812,36.0908203 C130.917969,36.0908203 132.36084,37.6362305 132.36084,40.0239258 L132.36084,40.6757812 L126.948242,40.6757812 L126.948242,40.8076172 C126.948242,41.9282227 127.658691,42.6972656 128.75,42.6972656 C129.533691,42.6972656 130.134277,42.309082 130.332031,41.7084961 Z M128.654785,37.6728516 C127.717285,37.6728516 127.043457,38.3833008 126.970215,39.3647461 L130.302734,39.3647461 C130.258789,38.3613281 129.606934,37.6728516 128.654785,37.6728516 Z M133.459473,44.1108398 L133.459473,36.2592773 L135.524902,36.2592773 L135.524902,37.6582031 L135.568848,37.6582031 C135.986328,36.684082 136.813965,36.112793 138.022461,36.112793 C139.765625,36.112793 140.74707,37.2114258 140.74707,39.0498047 L140.74707,44.1108398 L138.608398,44.1108398 L138.608398,39.496582 C138.608398,38.4711914 138.125,37.8852539 137.165527,37.8852539 C136.206055,37.8852539 135.598145,38.5883789 135.598145,39.6064453 L135.598145,44.1108398 L133.459473,44.1108398 Z M142.67334,34.4501953 L144.812012,34.4501953 L144.812012,36.2592773 L146.262207,36.2592773 L146.262207,37.8706055 L144.812012,37.8706055 L144.812012,41.6279297 C144.812012,42.2285156 145.10498,42.5141602 145.734863,42.5141602 C145.925293,42.5141602 146.123047,42.4995117 146.254883,42.4775391 L146.254883,44.0522461 C146.035156,44.1035156 145.668945,44.1401367 145.236816,44.1401367 C143.391113,44.1401367 142.67334,43.5249023 142.67334,41.9941406 L142.67334,37.8706055 L141.567383,37.8706055 L141.567383,36.2592773 L142.67334,36.2592773 L142.67334,34.4501953 Z M155.351562,33.3588867 C158.479004,33.3588867 160.449219,35.4609375 160.449219,38.8300781 C160.449219,42.1918945 158.479004,44.2866211 155.351562,44.2866211 C152.216797,44.2866211 150.253906,42.1918945 150.253906,38.8300781 C150.253906,35.4609375 152.216797,33.3588867 155.351562,33.3588867 Z M155.351562,35.2045898 C153.623047,35.2045898 152.509766,36.6108398 152.509766,38.8300781 C152.509766,41.0419922 153.615723,42.440918 155.351562,42.440918 C157.080078,42.440918 158.186035,41.0419922 158.186035,38.8300781 C158.186035,36.6108398 157.080078,35.2045898 155.351562,35.2045898 Z M168.820801,39.1816406 L166.835938,39.1816406 C166.711426,38.3540039 166.162109,37.7680664 165.283203,37.7680664 C164.228516,37.7680664 163.569336,38.6616211 163.569336,40.1777344 C163.569336,41.7231445 164.228516,42.6020508 165.290527,42.6020508 C166.147461,42.6020508 166.704102,42.0893555 166.835938,41.2324219 L168.828125,41.2324219 C168.718262,43.0854492 167.333984,44.2792969 165.268555,44.2792969 C162.902832,44.2792969 161.401367,42.7412109 161.401367,40.1777344 C161.401367,37.6582031 162.902832,36.0908203 165.253906,36.0908203 C167.37793,36.0908203 168.725586,37.4018555 168.820801,39.1816406 Z M176.994629,39.1816406 L175.009766,39.1816406 C174.885254,38.3540039 174.335938,37.7680664 173.457031,37.7680664 C172.402344,37.7680664 171.743164,38.6616211 171.743164,40.1777344 C171.743164,41.7231445 172.402344,42.6020508 173.464355,42.6020508 C174.321289,42.6020508 174.87793,42.0893555 175.009766,41.2324219 L177.001953,41.2324219 C176.89209,43.0854492 175.507812,44.2792969 173.442383,44.2792969 C171.07666,44.2792969 169.575195,42.7412109 169.575195,40.1777344 C169.575195,37.6582031 171.07666,36.0908203 173.427734,36.0908203 C175.551758,36.0908203 176.899414,37.4018555 176.994629,39.1816406 Z M185.285645,36.2592773 L185.285645,44.1108398 L183.220215,44.1108398 L183.220215,42.6972656 L183.17627,42.6972656 C182.788086,43.6860352 182.011719,44.2573242 180.825195,44.2573242 C179.125977,44.2573242 177.998047,43.1513672 177.998047,41.3203125 L177.998047,36.2592773 L180.136719,36.2592773 L180.136719,40.8735352 C180.136719,41.9208984 180.656738,42.4775391 181.601562,42.4775391 C182.553711,42.4775391 183.146973,41.7963867 183.146973,40.7563477 L183.146973,36.2592773 L185.285645,36.2592773 Z M191.262207,36.1347656 C193.254395,36.1347656 194.477539,37.6508789 194.477539,40.1850586 C194.477539,42.7119141 193.261719,44.2353516 191.298828,44.2353516 C190.15625,44.2353516 189.277344,43.6787109 188.859863,42.7924805 L188.815918,42.7924805 L188.815918,46.6743164 L186.677246,46.6743164 L186.677246,36.2592773 L188.786621,36.2592773 L188.786621,37.6289062 L188.830566,37.6289062 C189.255371,36.7060547 190.126953,36.1347656 191.262207,36.1347656 Z M190.544434,42.5141602 C191.61377,42.5141602 192.287598,41.6132812 192.287598,40.1850586 C192.287598,38.7641602 191.61377,37.8486328 190.544434,37.8486328 C189.49707,37.8486328 188.808594,38.7788086 188.808594,40.1850586 C188.808594,41.605957 189.49707,42.5141602 190.544434,42.5141602 Z M197.905273,44.2353516 C196.411133,44.2353516 195.275879,43.2685547 195.275879,41.8549805 C195.275879,40.4267578 196.374512,39.5991211 198.330078,39.4819336 L200.307617,39.3647461 L200.307617,38.8447266 C200.307617,38.1123047 199.794922,37.6875 198.989258,37.6875 C198.190918,37.6875 197.685547,38.0830078 197.583008,38.6616211 L195.627441,38.6616211 C195.708008,37.1381836 197.004395,36.0908203 199.084473,36.0908203 C201.098633,36.0908203 202.409668,37.1308594 202.409668,38.7128906 L202.409668,44.1108398 L200.344238,44.1108398 L200.344238,42.909668 L200.300293,42.909668 C199.86084,43.7446289 198.886719,44.2353516 197.905273,44.2353516 Z M198.608398,42.6899414 C199.538574,42.6899414 200.307617,42.0820312 200.307617,41.2324219 L200.307617,40.6611328 L198.652344,40.7636719 C197.854004,40.8222656 197.399902,41.1811523 197.399902,41.737793 C197.399902,42.3237305 197.883301,42.6899414 198.608398,42.6899414 Z M204.35791,34.4501953 L206.496582,34.4501953 L206.496582,36.2592773 L207.946777,36.2592773 L207.946777,37.8706055 L206.496582,37.8706055 L206.496582,41.6279297 C206.496582,42.2285156 206.789551,42.5141602 207.419434,42.5141602 C207.609863,42.5141602 207.807617,42.4995117 207.939453,42.4775391 L207.939453,44.0522461 C207.719727,44.1035156 207.353516,44.1401367 206.921387,44.1401367 C205.075684,44.1401367 204.35791,43.5249023 204.35791,41.9941406 L204.35791,37.8706055 L203.251953,37.8706055 L203.251953,36.2592773 L204.35791,36.2592773 L204.35791,34.4501953 Z M210.217285,35.1972656 C209.594727,35.1972656 209.104004,34.6992188 209.104004,34.0986328 C209.104004,33.4907227 209.594727,33 210.217285,33 C210.839844,33 211.330566,33.4907227 211.330566,34.0986328 C211.330566,34.6992188 210.839844,35.1972656 210.217285,35.1972656 Z M209.155273,44.1108398 L209.155273,36.2592773 L211.293945,36.2592773 L211.293945,44.1108398 L209.155273,44.1108398 Z M216.318359,44.2792969 C213.945312,44.2792969 212.429199,42.7558594 212.429199,40.1777344 C212.429199,37.6362305 213.967285,36.0908203 216.318359,36.0908203 C218.669434,36.0908203 220.20752,37.6289062 220.20752,40.1777344 C220.20752,42.7631836 218.691406,44.2792969 216.318359,44.2792969 Z M216.318359,42.6459961 C217.365723,42.6459961 218.032227,41.7597656 218.032227,40.1850586 C218.032227,38.625 217.358398,37.7241211 216.318359,37.7241211 C215.27832,37.7241211 214.597168,38.625 214.597168,40.1850586 C214.597168,41.7597656 215.263672,42.6459961 216.318359,42.6459961 Z M221.306152,44.1108398 L221.306152,36.2592773 L223.371582,36.2592773 L223.371582,37.6582031 L223.415527,37.6582031 C223.833008,36.684082 224.660645,36.112793 225.869141,36.112793 C227.612305,36.112793 228.59375,37.2114258 228.59375,39.0498047 L228.59375,44.1108398 L226.455078,44.1108398 L226.455078,39.496582 C226.455078,38.4711914 225.97168,37.8852539 225.012207,37.8852539 C224.052734,37.8852539 223.444824,38.5883789 223.444824,39.6064453 L223.444824,44.1108398 L221.306152,44.1108398 Z M231.340332,38.9692383 C230.681152,38.9692383 230.161133,38.4418945 230.161133,37.7900391 C230.161133,37.1308594 230.681152,36.6108398 231.340332,36.6108398 C231.992188,36.6108398 232.519531,37.1308594 232.519531,37.7900391 C232.519531,38.4418945 231.992188,38.9692383 231.340332,38.9692383 Z M231.340332,44.1987305 C230.681152,44.1987305 230.161133,43.6713867 230.161133,43.0195312 C230.161133,42.3603516 230.681152,41.840332 231.340332,41.840332 C231.992188,41.840332 232.519531,42.3603516 232.519531,43.0195312 C232.519531,43.6713867 231.992188,44.1987305 231.340332,44.1987305 Z M239.477539,44.1108398 L237.265625,44.1108398 L237.265625,33.5419922 L239.477539,33.5419922 L239.477539,44.1108398 Z M241.052246,44.1108398 L241.052246,36.2592773 L243.117676,36.2592773 L243.117676,37.6582031 L243.161621,37.6582031 C243.579102,36.684082 244.406738,36.112793 245.615234,36.112793 C247.358398,36.112793 248.339844,37.2114258 248.339844,39.0498047 L248.339844,44.1108398 L246.201172,44.1108398 L246.201172,39.496582 C246.201172,38.4711914 245.717773,37.8852539 244.758301,37.8852539 C243.798828,37.8852539 243.190918,38.5883789 243.190918,39.6064453 L243.190918,44.1108398 L241.052246,44.1108398 Z M250.266113,34.4501953 L252.404785,34.4501953 L252.404785,36.2592773 L253.85498,36.2592773 L253.85498,37.8706055 L252.404785,37.8706055 L252.404785,41.6279297 C252.404785,42.2285156 252.697754,42.5141602 253.327637,42.5141602 C253.518066,42.5141602 253.71582,42.4995117 253.847656,42.4775391 L253.847656,44.0522461 C253.62793,44.1035156 253.261719,44.1401367 252.82959,44.1401367 C250.983887,44.1401367 250.266113,43.5249023 250.266113,41.9941406 L250.266113,37.8706055 L249.160156,37.8706055 L249.160156,36.2592773 L250.266113,36.2592773 L250.266113,34.4501953 Z M260.117188,41.7084961 L262.080078,41.7084961 C261.845703,43.246582 260.439453,44.2792969 258.498535,44.2792969 C256.081543,44.2792969 254.631348,42.7338867 254.631348,40.2216797 C254.631348,37.7167969 256.096191,36.0908203 258.417969,36.0908203 C260.703125,36.0908203 262.145996,37.6362305 262.145996,40.0239258 L262.145996,40.6757812 L256.733398,40.6757812 L256.733398,40.8076172 C256.733398,41.9282227 257.443848,42.6972656 258.535156,42.6972656 C259.318848,42.6972656 259.919434,42.309082 260.117188,41.7084961 Z M258.439941,37.6728516 C257.502441,37.6728516 256.828613,38.3833008 256.755371,39.3647461 L260.087891,39.3647461 C260.043945,38.3613281 259.39209,37.6728516 258.439941,37.6728516 Z M263.244629,44.1108398 L263.244629,36.2592773 L265.310059,36.2592773 L265.310059,37.6728516 L265.354004,37.6728516 C265.632324,36.6767578 266.298828,36.1347656 267.22168,36.1347656 C267.470703,36.1347656 267.683105,36.1713867 267.82959,36.215332 L267.82959,38.0976562 C267.653809,38.0244141 267.36084,37.9731445 267.053223,37.9731445 C265.998535,37.9731445 265.383301,38.6176758 265.383301,39.7236328 L265.383301,44.1108398 L263.244629,44.1108398 Z M268.701172,44.1108398 L268.701172,36.2592773 L270.766602,36.2592773 L270.766602,37.6582031 L270.810547,37.6582031 C271.228027,36.684082 272.055664,36.112793 273.26416,36.112793 C275.007324,36.112793 275.98877,37.2114258 275.98877,39.0498047 L275.98877,44.1108398 L273.850098,44.1108398 L273.850098,39.496582 C273.850098,38.4711914 273.366699,37.8852539 272.407227,37.8852539 C271.447754,37.8852539 270.839844,38.5883789 270.839844,39.6064453 L270.839844,44.1108398 L268.701172,44.1108398 Z M277.211914,38.5664062 C277.211914,37.0722656 278.500977,36.0908203 280.500488,36.0908203 C282.514648,36.0908203 283.759766,37.1235352 283.803711,38.6616211 L281.833496,38.6616211 C281.767578,38.0244141 281.291504,37.5922852 280.500488,37.5922852 C279.760742,37.5922852 279.27002,37.9291992 279.27002,38.4492188 C279.27002,38.8520508 279.562988,39.1230469 280.354004,39.2915039 L281.694336,39.5771484 C283.334961,39.9213867 284.008789,40.565918 284.008789,41.7158203 C284.008789,43.2612305 282.595215,44.2792969 280.57373,44.2792969 C278.405762,44.2792969 277.15332,43.2685547 277.01416,41.7231445 L279.101562,41.7231445 C279.233398,42.4116211 279.724121,42.777832 280.57373,42.777832 C281.379395,42.777832 281.877441,42.4482422 281.877441,41.9355469 C281.877441,41.5180664 281.606445,41.2836914 280.837402,41.1079102 L279.49707,40.8295898 C277.980957,40.5073242 277.211914,39.7456055 277.211914,38.5664062 Z M285.114746,44.1108398 L285.114746,33.5419922 L287.216797,33.5419922 L287.216797,37.6582031 L287.260742,37.6582031 C287.678223,36.6694336 288.535156,36.112793 289.729004,36.112793 C291.472168,36.112793 292.468262,37.2407227 292.468262,39.0571289 L292.468262,44.1108398 L290.32959,44.1108398 L290.32959,39.5112305 C290.32959,38.5004883 289.831543,37.8852539 288.857422,37.8852539 C287.84668,37.8852539 287.253418,38.5957031 287.253418,39.628418 L287.253418,44.1108398 L285.114746,44.1108398 Z M294.929199,35.1972656 C294.306641,35.1972656 293.815918,34.6992188 293.815918,34.0986328 C293.815918,33.4907227 294.306641,33 294.929199,33 C295.551758,33 296.04248,33.4907227 296.04248,34.0986328 C296.04248,34.6992188 295.551758,35.1972656 294.929199,35.1972656 Z M293.867188,44.1108398 L293.867188,36.2592773 L296.005859,36.2592773 L296.005859,44.1108398 L293.867188,44.1108398 Z M302.011719,36.1347656 C304.003906,36.1347656 305.227051,37.6508789 305.227051,40.1850586 C305.227051,42.7119141 304.01123,44.2353516 302.04834,44.2353516 C300.905762,44.2353516 300.026855,43.6787109 299.609375,42.7924805 L299.56543,42.7924805 L299.56543,46.6743164 L297.426758,46.6743164 L297.426758,36.2592773 L299.536133,36.2592773 L299.536133,37.6289062 L299.580078,37.6289062 C300.004883,36.7060547 300.876465,36.1347656 302.011719,36.1347656 Z M301.293945,42.5141602 C302.363281,42.5141602 303.037109,41.6132812 303.037109,40.1850586 C303.037109,38.7641602 302.363281,37.8486328 301.293945,37.8486328 C300.246582,37.8486328 299.558105,38.7788086 299.558105,40.1850586 C299.558105,41.605957 300.246582,42.5141602 301.293945,42.5141602 Z" id="Current-Occupation:" fill="#FFFFFF"></path>
        <rect id="Rectangle-3" fill="#FF374F" x="147" y="60" width="59" height="10" rx="1"></rect>
        <path d="M213.334961,68.2851562 C211.28418,68.2851562 210,66.9179688 210,64.6425781 C210,62.3720703 211.293945,61 213.334961,61 C215.029297,61 216.318359,62.0742188 216.430664,63.6513672 L214.995117,63.6513672 C214.858398,62.7871094 214.194336,62.2207031 213.334961,62.2207031 C212.22168,62.2207031 211.503906,63.1533203 211.503906,64.6376953 C211.503906,66.1416016 212.211914,67.0693359 213.339844,67.0693359 C214.213867,67.0693359 214.84375,66.5566406 215,65.7216797 L216.435547,65.7216797 C216.269531,67.2939453 215.063477,68.2851562 213.334961,68.2851562 Z M219.624023,68.2802734 C218.041992,68.2802734 217.03125,67.2646484 217.03125,65.5458984 C217.03125,63.8515625 218.056641,62.8212891 219.624023,62.8212891 C221.191406,62.8212891 222.216797,63.8466797 222.216797,65.5458984 C222.216797,67.2695312 221.206055,68.2802734 219.624023,68.2802734 Z M219.624023,67.1914062 C220.322266,67.1914062 220.766602,66.6005859 220.766602,65.5507812 C220.766602,64.5107422 220.317383,63.9101562 219.624023,63.9101562 C218.930664,63.9101562 218.476562,64.5107422 218.476562,65.5507812 C218.476562,66.6005859 218.920898,67.1914062 219.624023,67.1914062 Z M222.949219,68.1679688 L222.949219,62.9335938 L224.326172,62.9335938 L224.326172,63.8808594 L224.355469,63.8808594 C224.575195,63.2509766 225.136719,62.8359375 225.849609,62.8359375 C226.606445,62.8359375 227.133789,63.2265625 227.30957,63.9101562 L227.338867,63.9101562 C227.573242,63.2509766 228.198242,62.8359375 228.964844,62.8359375 C229.990234,62.8359375 230.678711,63.5390625 230.678711,64.59375 L230.678711,68.1679688 L229.25293,68.1679688 L229.25293,64.9501953 C229.25293,64.3447266 228.950195,64.0126953 228.398438,64.0126953 C227.856445,64.0126953 227.5,64.4082031 227.5,64.9892578 L227.5,68.1679688 L226.12793,68.1679688 L226.12793,64.90625 C226.12793,64.3447266 225.810547,64.0126953 225.283203,64.0126953 C224.741211,64.0126953 224.375,64.4228516 224.375,65.0087891 L224.375,68.1679688 L222.949219,68.1679688 Z M234.638672,62.8505859 C235.966797,62.8505859 236.782227,63.8613281 236.782227,65.5507812 C236.782227,67.2353516 235.97168,68.2509766 234.663086,68.2509766 C233.901367,68.2509766 233.31543,67.8798828 233.037109,67.2890625 L233.007812,67.2890625 L233.007812,69.8769531 L231.582031,69.8769531 L231.582031,62.9335938 L232.988281,62.9335938 L232.988281,63.8466797 L233.017578,63.8466797 C233.300781,63.2314453 233.881836,62.8505859 234.638672,62.8505859 Z M234.160156,67.1035156 C234.873047,67.1035156 235.322266,66.5029297 235.322266,65.5507812 C235.322266,64.6035156 234.873047,63.9931641 234.160156,63.9931641 C233.461914,63.9931641 233.00293,64.6132812 233.00293,65.5507812 C233.00293,66.4980469 233.461914,67.1035156 234.160156,67.1035156 Z M239.067383,68.2509766 C238.071289,68.2509766 237.314453,67.6064453 237.314453,66.6640625 C237.314453,65.7119141 238.046875,65.1601562 239.350586,65.0820312 L240.668945,65.0039062 L240.668945,64.6572266 C240.668945,64.1689453 240.327148,63.8857422 239.790039,63.8857422 C239.257812,63.8857422 238.920898,64.1494141 238.852539,64.5351562 L237.548828,64.5351562 C237.602539,63.5195312 238.466797,62.8212891 239.853516,62.8212891 C241.196289,62.8212891 242.070312,63.5146484 242.070312,64.5693359 L242.070312,68.1679688 L240.693359,68.1679688 L240.693359,67.3671875 L240.664062,67.3671875 C240.371094,67.9238281 239.72168,68.2509766 239.067383,68.2509766 Z M239.536133,67.2207031 C240.15625,67.2207031 240.668945,66.8154297 240.668945,66.2490234 L240.668945,65.8681641 L239.56543,65.9365234 C239.033203,65.9755859 238.730469,66.2148438 238.730469,66.5859375 C238.730469,66.9765625 239.052734,67.2207031 239.536133,67.2207031 Z M242.988281,68.1679688 L242.988281,62.9335938 L244.365234,62.9335938 L244.365234,63.8662109 L244.394531,63.8662109 C244.672852,63.2167969 245.224609,62.8359375 246.030273,62.8359375 C247.192383,62.8359375 247.84668,63.5683594 247.84668,64.7939453 L247.84668,68.1679688 L246.420898,68.1679688 L246.420898,65.0917969 C246.420898,64.4082031 246.098633,64.0175781 245.458984,64.0175781 C244.819336,64.0175781 244.414062,64.4863281 244.414062,65.1650391 L244.414062,68.1679688 L242.988281,68.1679688 Z M249.399414,70.1064453 C249.345703,70.1064453 248.90625,70.1015625 248.857422,70.0917969 L248.857422,68.9882812 C248.90625,68.9980469 249.165039,69.0029297 249.21875,69.0029297 C249.736328,69.0029297 249.995117,68.8369141 250.092773,68.421875 C250.092773,68.3974609 250.146484,68.1923828 250.141602,68.1679688 L248.320312,62.9335938 L249.882812,62.9335938 L250.996094,67.0253906 L251.025391,67.0253906 L252.133789,62.9335938 L253.637695,62.9335938 L251.835938,68.2802734 C251.391602,69.6230469 250.732422,70.1064453 249.399414,70.1064453 Z" id="Company" fill="#FFFFFF"></path>
        <path d="M150.474609,68.2070312 L149,68.2070312 L149,61.1611328 L153.614258,61.1611328 L153.614258,62.3769531 L150.474609,62.3769531 L150.474609,64.2666016 L153.34082,64.2666016 L153.34082,65.4335938 L150.474609,65.4335938 L150.474609,68.2070312 Z M156.617188,68.3193359 C155.035156,68.3193359 154.024414,67.3037109 154.024414,65.5849609 C154.024414,63.890625 155.049805,62.8603516 156.617188,62.8603516 C158.18457,62.8603516 159.209961,63.8857422 159.209961,65.5849609 C159.209961,67.3085938 158.199219,68.3193359 156.617188,68.3193359 Z M156.617188,67.2304688 C157.31543,67.2304688 157.759766,66.6396484 157.759766,65.5898438 C157.759766,64.5498047 157.310547,63.9492188 156.617188,63.9492188 C155.923828,63.9492188 155.469727,64.5498047 155.469727,65.5898438 C155.469727,66.6396484 155.914062,67.2304688 156.617188,67.2304688 Z M159.942383,68.2070312 L159.942383,62.9726562 L161.319336,62.9726562 L161.319336,63.9150391 L161.348633,63.9150391 C161.53418,63.2509766 161.978516,62.8896484 162.59375,62.8896484 C162.759766,62.8896484 162.901367,62.9140625 162.999023,62.9433594 L162.999023,64.1982422 C162.881836,64.1494141 162.686523,64.1152344 162.481445,64.1152344 C161.77832,64.1152344 161.368164,64.5449219 161.368164,65.2822266 L161.368164,68.2070312 L159.942383,68.2070312 Z M163.960938,61.7666016 L165.386719,61.7666016 L165.386719,62.9726562 L166.353516,62.9726562 L166.353516,64.046875 L165.386719,64.046875 L165.386719,66.5517578 C165.386719,66.9521484 165.582031,67.1425781 166.001953,67.1425781 C166.128906,67.1425781 166.260742,67.1328125 166.348633,67.1181641 L166.348633,68.1679688 C166.202148,68.2021484 165.958008,68.2265625 165.669922,68.2265625 C164.439453,68.2265625 163.960938,67.8164062 163.960938,66.7958984 L163.960938,64.046875 L163.223633,64.046875 L163.223633,62.9726562 L163.960938,62.9726562 L163.960938,61.7666016 Z M171.96875,62.9726562 L171.96875,68.2070312 L170.591797,68.2070312 L170.591797,67.2646484 L170.5625,67.2646484 C170.303711,67.9238281 169.786133,68.3046875 168.995117,68.3046875 C167.862305,68.3046875 167.110352,67.5673828 167.110352,66.3466797 L167.110352,62.9726562 L168.536133,62.9726562 L168.536133,66.0488281 C168.536133,66.7470703 168.882812,67.1181641 169.512695,67.1181641 C170.147461,67.1181641 170.542969,66.6640625 170.542969,65.9707031 L170.542969,62.9726562 L171.96875,62.9726562 Z M172.896484,68.2070312 L172.896484,62.9726562 L174.273438,62.9726562 L174.273438,63.9052734 L174.302734,63.9052734 C174.581055,63.2558594 175.132812,62.875 175.938477,62.875 C177.100586,62.875 177.754883,63.6074219 177.754883,64.8330078 L177.754883,68.2070312 L176.329102,68.2070312 L176.329102,65.1308594 C176.329102,64.4472656 176.006836,64.0566406 175.367188,64.0566406 C174.727539,64.0566406 174.322266,64.5253906 174.322266,65.2041016 L174.322266,68.2070312 L172.896484,68.2070312 Z M182.125,66.6054688 L183.433594,66.6054688 C183.277344,67.6308594 182.339844,68.3193359 181.045898,68.3193359 C179.43457,68.3193359 178.467773,67.2890625 178.467773,65.6142578 C178.467773,63.9443359 179.444336,62.8603516 180.992188,62.8603516 C182.515625,62.8603516 183.477539,63.890625 183.477539,65.4824219 L183.477539,65.9169922 L179.869141,65.9169922 L179.869141,66.0048828 C179.869141,66.7519531 180.342773,67.2646484 181.070312,67.2646484 C181.592773,67.2646484 181.993164,67.0058594 182.125,66.6054688 Z M181.006836,63.9150391 C180.381836,63.9150391 179.932617,64.3886719 179.883789,65.0429688 L182.105469,65.0429688 C182.076172,64.3740234 181.641602,63.9150391 181.006836,63.9150391 Z M188.926758,68.3632812 C187.417969,68.3632812 186.324219,67.4648438 186.285156,66.1855469 L187.647461,66.1855469 C187.730469,66.7958984 188.25293,67.1962891 188.931641,67.1962891 C189.708008,67.1962891 190.245117,66.6640625 190.245117,65.8974609 C190.245117,65.140625 189.708008,64.6083984 188.936523,64.6083984 C188.370117,64.6083984 187.930664,64.8720703 187.691406,65.296875 L186.407227,65.296875 L186.729492,61.1611328 L191.226562,61.1611328 L191.226562,62.3330078 L187.901367,62.3330078 L187.730469,64.3154297 L187.759766,64.3154297 C188.052734,63.8417969 188.633789,63.5537109 189.34668,63.5537109 C190.689453,63.5537109 191.651367,64.5205078 191.651367,65.8632812 C191.651367,67.3525391 190.542969,68.3632812 188.926758,68.3632812 Z M195.254883,68.3632812 C193.467773,68.3632812 192.378906,66.9521484 192.378906,64.671875 C192.378906,62.3964844 193.477539,61 195.254883,61 C197.032227,61 198.125977,62.3916016 198.125977,64.6669922 C198.125977,66.9423828 197.041992,68.3632812 195.254883,68.3632812 Z M195.254883,67.1816406 C196.124023,67.1816406 196.626953,66.2880859 196.626953,64.671875 C196.626953,63.0654297 196.119141,62.1816406 195.254883,62.1816406 C194.395508,62.1816406 193.87793,63.0703125 193.87793,64.671875 C193.87793,66.2880859 194.385742,67.1816406 195.254883,67.1816406 Z M201.8125,68.3632812 C200.025391,68.3632812 198.936523,66.9521484 198.936523,64.671875 C198.936523,62.3964844 200.035156,61 201.8125,61 C203.589844,61 204.683594,62.3916016 204.683594,64.6669922 C204.683594,66.9423828 203.599609,68.3632812 201.8125,68.3632812 Z M201.8125,67.1816406 C202.681641,67.1816406 203.18457,66.2880859 203.18457,64.671875 C203.18457,63.0654297 202.676758,62.1816406 201.8125,62.1816406 C200.953125,62.1816406 200.435547,63.0703125 200.435547,64.671875 C200.435547,66.2880859 200.943359,67.1816406 201.8125,67.1816406 Z" id="Fortune-500" fill="#150F30"></path>
    </g>
</svg>